<?xml version="1.0" encoding="UTF-8" standalone="no"?>
<!-- Created with Inkscape (http://www.inkscape.org/) -->

<svg
   xmlns:dc="http://purl.org/dc/elements/1.1/"
   xmlns:cc="http://creativecommons.org/ns#"
   xmlns:rdf="http://www.w3.org/1999/02/22-rdf-syntax-ns#"
   xmlns:svg="http://www.w3.org/2000/svg"
   xmlns="http://www.w3.org/2000/svg"
   xmlns:sodipodi="http://sodipodi.sourceforge.net/DTD/sodipodi-0.dtd"
   xmlns:inkscape="http://www.inkscape.org/namespaces/inkscape"
   width="15.875mm"
   height="18.25625mm"
   viewBox="0 0 15.875 18.25625"
   version="1.1"
   id="svg8"
   inkscape:version="0.92.1 r15371"
   sodipodi:docname="11.svg">
  <defs
     id="defs2" />
  <sodipodi:namedview
     id="base"
     pagecolor="#ffffff"
     bordercolor="#666666"
     borderopacity="1.0"
     inkscape:pageopacity="0.0"
     inkscape:pageshadow="2"
     inkscape:zoom="1.4"
     inkscape:cx="-176.13095"
     inkscape:cy="124.89592"
     inkscape:document-units="mm"
     inkscape:current-layer="layer1"
     showgrid="false"
     fit-margin-top="0"
     fit-margin-left="0"
     fit-margin-right="0"
     fit-margin-bottom="0"
     inkscape:window-width="1920"
     inkscape:window-height="1017"
     inkscape:window-x="-8"
     inkscape:window-y="-8"
     inkscape:window-maximized="1" />
  <metadata
     id="metadata5">
    <rdf:RDF>
      <cc:Work
         rdf:about="">
        <dc:format>image/svg+xml</dc:format>
        <dc:type
           rdf:resource="http://purl.org/dc/dcmitype/StillImage" />
        <dc:title></dc:title>
      </cc:Work>
    </rdf:RDF>
  </metadata>
  <g
     inkscape:label="Layer 1"
     inkscape:groupmode="layer"
     id="layer1"
     transform="translate(-248.54152,-222.58819)">
    <path
       style="fill:#000000;stroke-width:0.26458332"
       d="m 251.5722,240.19501 c -0.64405,-0.64406 -0.64943,-0.69116 -0.64943,-5.68854 v -5.03911 h -0.77485 c -0.81625,0 -1.6064,-0.58565 -1.6064,-1.19063 0,-0.83059 0.80579,-1.19062 2.66473,-1.19062 h 1.83319 v -1.83319 c 0,-2.53636 0.16569,-2.66473 3.43958,-2.66473 3.27389,0 3.43958,0.12837 3.43958,2.66473 v 1.83319 h 1.81108 c 1.41852,0 1.90599,0.10487 2.24896,0.48385 0.24083,0.26612 0.43788,0.6148 0.43788,0.77485 0,0.54351 -0.82862,1.12255 -1.6064,1.12255 h -0.77485 v 4.87315 c 0,2.68023 -0.074,5.06589 -0.16435,5.30145 -0.36828,0.95972 -1.50998,1.20248 -5.65537,1.20248 -3.88768,0 -4.01119,-0.0173 -4.64335,-0.64943 z m 3.57459,-2.24359 c 0.15065,-0.28148 0.2739,-2.07524 0.2739,-3.98615 0,-1.9109 -0.12325,-3.70467 -0.2739,-3.98614 -0.30615,-0.57206 -1.30378,-0.68034 -1.78985,-0.19427 -0.44317,0.44316 -0.44317,7.91767 0,8.36083 0.48607,0.48607 1.4837,0.37779 1.78985,-0.19427 z m 4.49792,0 c 0.15064,-0.28148 0.27389,-2.07524 0.27389,-3.98615 0,-1.9109 -0.12325,-3.70467 -0.27389,-3.98614 -0.30616,-0.57206 -1.30379,-0.68034 -1.78986,-0.19427 -0.44316,0.44316 -0.44316,7.91767 0,8.36083 0.48607,0.48607 1.4837,0.37779 1.78986,-0.19427 z m -2.10736,-11.62667 c 0,-0.91232 -0.54091,-1.42764 -1.3745,-1.30947 -0.49465,0.0701 -0.62539,0.27391 -0.69199,1.07864 l -0.0821,0.99219 h 1.07431 c 1.00712,0 1.0743,-0.0476 1.0743,-0.76136 z"
       id="path60"
       inkscape:connector-curvature="0" />
  </g>
</svg>
