<?xml version="1.0" encoding="UTF-8" standalone="no"?>
<!-- Created with Inkscape (http://www.inkscape.org/) -->

<svg
   xmlns:dc="http://purl.org/dc/elements/1.1/"
   xmlns:cc="http://creativecommons.org/ns#"
   xmlns:rdf="http://www.w3.org/1999/02/22-rdf-syntax-ns#"
   xmlns:svg="http://www.w3.org/2000/svg"
   xmlns="http://www.w3.org/2000/svg"
   xmlns:sodipodi="http://sodipodi.sourceforge.net/DTD/sodipodi-0.dtd"
   xmlns:inkscape="http://www.inkscape.org/namespaces/inkscape"
   width="15.855086mm"
   height="15.807535mm"
   viewBox="0 0 15.855086 15.807535"
   version="1.1"
   id="svg8"
   inkscape:version="0.92.1 r15371"
   sodipodi:docname="3.svg">
  <defs
     id="defs2" />
  <sodipodi:namedview
     id="base"
     pagecolor="#ffffff"
     bordercolor="#666666"
     borderopacity="1.0"
     inkscape:pageopacity="0.0"
     inkscape:pageshadow="2"
     inkscape:zoom="1.979899"
     inkscape:cx="-134.41324"
     inkscape:cy="47.049078"
     inkscape:document-units="mm"
     inkscape:current-layer="layer1"
     showgrid="false"
     fit-margin-top="0"
     fit-margin-left="0"
     fit-margin-right="0"
     fit-margin-bottom="0"
     inkscape:window-width="1920"
     inkscape:window-height="1017"
     inkscape:window-x="-8"
     inkscape:window-y="-8"
     inkscape:window-maximized="1" />
  <metadata
     id="metadata5">
    <rdf:RDF>
      <cc:Work
         rdf:about="">
        <dc:format>image/svg+xml</dc:format>
        <dc:type
           rdf:resource="http://purl.org/dc/dcmitype/StillImage" />
        <dc:title></dc:title>
      </cc:Work>
    </rdf:RDF>
  </metadata>
  <g
     inkscape:label="Layer 1"
     inkscape:groupmode="layer"
     id="layer1"
     transform="translate(-185.12765,-197.7586)">
    <path
       style="fill:#000000;stroke-width:0.26458332"
       d="m 186.00715,212.94033 c -0.62715,-0.53945 -0.74292,-0.86713 -0.83889,-2.37445 -0.1315,-2.06513 0.0496,-2.96544 0.64214,-3.19283 0.77368,-0.29689 1.15937,0.34824 1.15937,1.93924 0,0.8262 0.14288,1.64506 0.3175,1.81968 0.44913,0.44913 11.08671,0.44913 11.53584,0 0.17462,-0.17462 0.3175,-0.99348 0.3175,-1.81968 0,-1.591 0.38569,-2.23613 1.15937,-1.93924 0.59257,0.22739 0.77364,1.1277 0.64214,3.19283 -0.096,1.50732 -0.21174,1.835 -0.83889,2.37445 -0.72109,0.62026 -0.78364,0.62581 -7.04804,0.62581 -6.2644,0 -6.32695,-0.006 -7.04804,-0.62581 z m 5.10761,-5.35453 c -1.90544,-2.04041 -2.0809,-2.30603 -1.87599,-2.84001 0.29648,-0.77261 0.97377,-0.74277 1.82299,0.0803 0.4554,0.44139 0.91163,0.80252 1.01384,0.80252 0.10221,0 0.18584,-1.6523 0.18584,-3.67177 0,-2.94102 0.079,-3.73732 0.39687,-4.00115 0.31664,-0.26278 0.47712,-0.26278 0.79375,0 0.31789,0.26383 0.39688,1.06013 0.39688,4.00115 0,2.01947 0.0968,3.67177 0.21508,3.67177 0.1183,0 0.55729,-0.35719 0.97554,-0.79375 0.41826,-0.43656 0.84875,-0.79375 0.95665,-0.79375 0.29252,0 1.02773,0.79079 1.02773,1.10543 0,0.34248 -3.70551,4.18624 -4.03566,4.18624 -0.13314,0 -0.97622,-0.78616 -1.87352,-1.74701 z"
       id="path3717"
       inkscape:connector-curvature="0" />
  </g>
</svg>
