<?xml version="1.0" encoding="UTF-8" standalone="no"?>
<!-- Created with Inkscape (http://www.inkscape.org/) -->

<svg
   xmlns:dc="http://purl.org/dc/elements/1.1/"
   xmlns:cc="http://creativecommons.org/ns#"
   xmlns:rdf="http://www.w3.org/1999/02/22-rdf-syntax-ns#"
   xmlns:svg="http://www.w3.org/2000/svg"
   xmlns="http://www.w3.org/2000/svg"
   xmlns:sodipodi="http://sodipodi.sourceforge.net/DTD/sodipodi-0.dtd"
   xmlns:inkscape="http://www.inkscape.org/namespaces/inkscape"
   width="15.630973mm"
   height="13.366111mm"
   viewBox="0 0 15.630973 13.366111"
   version="1.1"
   id="svg8"
   inkscape:version="0.92.1 r15371"
   sodipodi:docname="4.svg">
  <defs
     id="defs2" />
  <sodipodi:namedview
     id="base"
     pagecolor="#ffffff"
     bordercolor="#666666"
     borderopacity="1.0"
     inkscape:pageopacity="0.0"
     inkscape:pageshadow="2"
     inkscape:zoom="1.979899"
     inkscape:cx="-58.275729"
     inkscape:cy="8.9081437"
     inkscape:document-units="mm"
     inkscape:current-layer="layer1"
     showgrid="false"
     fit-margin-top="0"
     fit-margin-left="0"
     fit-margin-right="0"
     fit-margin-bottom="0"
     inkscape:window-width="1920"
     inkscape:window-height="1017"
     inkscape:window-x="-8"
     inkscape:window-y="-8"
     inkscape:window-maximized="1" />
  <metadata
     id="metadata5">
    <rdf:RDF>
      <cc:Work
         rdf:about="">
        <dc:format>image/svg+xml</dc:format>
        <dc:type
           rdf:resource="http://purl.org/dc/dcmitype/StillImage" />
        <dc:title></dc:title>
      </cc:Work>
    </rdf:RDF>
  </metadata>
  <g
     inkscape:label="Layer 1"
     inkscape:groupmode="layer"
     id="layer1"
     transform="translate(-237.88327,-249.55806)">
    <path
       style="fill:#000000;stroke-width:0.26458332"
       d="m 244.40882,261.82113 c -6.36684,-5.86287 -6.95476,-6.69865 -6.33393,-9.00424 0.76271,-2.83248 4.63972,-4.20909 6.9979,-2.48474 0.45091,0.32971 0.63176,0.31855 1.44703,-0.0893 1.44577,-0.72334 2.27946,-0.8405 3.60529,-0.50665 2.33837,0.58881 3.79098,2.8511 3.29061,5.12479 -0.19653,0.89307 -0.8023,1.60577 -3.87931,4.56406 -2.00552,1.92815 -3.71178,3.50275 -3.79168,3.49911 -0.0799,-0.004 -0.68106,-0.49998 -1.33591,-1.10299 z m 3.8955,-3.68766 c 3.16655,-2.93368 3.24825,-3.04033 3.24825,-4.2399 0,-0.74777 -0.17992,-1.22097 -0.63867,-1.67972 -1.24706,-1.24707 -2.70774,-1.19045 -4.25127,0.16479 l -0.93089,0.81733 -0.93089,-0.81733 c -1.54353,-1.35524 -3.00421,-1.41186 -4.25127,-0.16479 -0.45904,0.45903 -0.63867,0.93187 -0.63867,1.6811 0,0.97945 0.16919,1.20397 2.80046,3.71619 1.54026,1.47057 2.90627,2.67377 3.0356,2.67377 0.12932,0 1.28013,-0.96815 2.55735,-2.15144 z"
       id="path21"
       inkscape:connector-curvature="0" />
  </g>
</svg>
