<?xml version="1.0" encoding="UTF-8" standalone="no"?>
<!-- Created with Inkscape (http://www.inkscape.org/) -->

<svg
   xmlns:dc="http://purl.org/dc/elements/1.1/"
   xmlns:cc="http://creativecommons.org/ns#"
   xmlns:rdf="http://www.w3.org/1999/02/22-rdf-syntax-ns#"
   xmlns:svg="http://www.w3.org/2000/svg"
   xmlns="http://www.w3.org/2000/svg"
   xmlns:sodipodi="http://sodipodi.sourceforge.net/DTD/sodipodi-0.dtd"
   xmlns:inkscape="http://www.inkscape.org/namespaces/inkscape"
   width="15.686423mm"
   height="15.753065mm"
   viewBox="0 0 15.686423 15.753065"
   version="1.1"
   id="svg8"
   inkscape:version="0.92.1 r15371"
   sodipodi:docname="5.svg">
  <defs
     id="defs2" />
  <sodipodi:namedview
     id="base"
     pagecolor="#ffffff"
     bordercolor="#666666"
     borderopacity="1.0"
     inkscape:pageopacity="0.0"
     inkscape:pageshadow="2"
     inkscape:zoom="1.979899"
     inkscape:cx="-142.11047"
     inkscape:cy="69.061352"
     inkscape:document-units="mm"
     inkscape:current-layer="layer1"
     showgrid="false"
     fit-margin-top="0"
     fit-margin-left="0"
     fit-margin-right="0"
     fit-margin-bottom="0"
     inkscape:window-width="1920"
     inkscape:window-height="1017"
     inkscape:window-x="-8"
     inkscape:window-y="-8"
     inkscape:window-maximized="1" />
  <metadata
     id="metadata5">
    <rdf:RDF>
      <cc:Work
         rdf:about="">
        <dc:format>image/svg+xml</dc:format>
        <dc:type
           rdf:resource="http://purl.org/dc/dcmitype/StillImage" />
        <dc:title></dc:title>
      </cc:Work>
    </rdf:RDF>
  </metadata>
  <g
     inkscape:label="Layer 1"
     inkscape:groupmode="layer"
     id="layer1"
     transform="translate(-260.06455,-263.08664)">
    <path
       style="fill:#000000;stroke-width:0.26458332"
       d="m 265.39323,278.40622 c -6.63774,-2.37257 -7.21811,-11.44292 -0.92976,-14.53096 2.1412,-1.05149 4.83406,-1.05149 6.97526,0 2.834,1.3917 4.30309,3.79936 4.3121,7.067 0.005,1.64305 -0.1215,2.24295 -0.73273,3.48763 -1.73743,3.53802 -5.96492,5.28452 -9.62487,3.97633 z m 5.2037,-2.18579 c 2.01562,-1.01692 3.22792,-2.99922 3.22792,-5.27817 0,-3.3247 -2.54905,-5.87375 -5.87375,-5.87375 -3.3247,0 -5.87375,2.54905 -5.87375,5.87375 0,4.41981 4.58756,7.26195 8.51958,5.27817 z m -4.49791,-5.24986 c 0,-1.6163 0.0728,-2.93873 0.16169,-2.93873 0.33353,0 4.60081,2.6905 4.60081,2.90079 0,0.22001 -3.49437,2.49003 -4.32183,2.80756 -0.39488,0.15153 -0.44067,-0.13631 -0.44067,-2.76962 z"
       id="path34"
       inkscape:connector-curvature="0" />
  </g>
</svg>
