<?xml version="1.0" encoding="UTF-8" standalone="no"?>
<!-- Created with Inkscape (http://www.inkscape.org/) -->

<svg
   xmlns:dc="http://purl.org/dc/elements/1.1/"
   xmlns:cc="http://creativecommons.org/ns#"
   xmlns:rdf="http://www.w3.org/1999/02/22-rdf-syntax-ns#"
   xmlns:svg="http://www.w3.org/2000/svg"
   xmlns="http://www.w3.org/2000/svg"
   xmlns:sodipodi="http://sodipodi.sourceforge.net/DTD/sodipodi-0.dtd"
   xmlns:inkscape="http://www.inkscape.org/namespaces/inkscape"
   width="15.714761mm"
   height="19.472178mm"
   viewBox="0 0 15.71476 19.472177"
   version="1.1"
   id="svg8"
   inkscape:version="0.92.1 r15371"
   sodipodi:docname="6.svg">
  <defs
     id="defs2" />
  <sodipodi:namedview
     id="base"
     pagecolor="#ffffff"
     bordercolor="#666666"
     borderopacity="1.0"
     inkscape:pageopacity="0.0"
     inkscape:pageshadow="2"
     inkscape:zoom="1.979899"
     inkscape:cx="-149.20274"
     inkscape:cy="78.083645"
     inkscape:document-units="mm"
     inkscape:current-layer="layer1"
     showgrid="false"
     fit-margin-top="0"
     fit-margin-left="0"
     fit-margin-right="0"
     fit-margin-bottom="0"
     inkscape:window-width="1920"
     inkscape:window-height="1017"
     inkscape:window-x="-8"
     inkscape:window-y="-8"
     inkscape:window-maximized="1" />
  <metadata
     id="metadata5">
    <rdf:RDF>
      <cc:Work
         rdf:about="">
        <dc:format>image/svg+xml</dc:format>
        <dc:type
           rdf:resource="http://purl.org/dc/dcmitype/StillImage" />
        <dc:title></dc:title>
      </cc:Work>
    </rdf:RDF>
  </metadata>
  <g
     inkscape:label="Layer 1"
     inkscape:groupmode="layer"
     id="layer1"
     transform="translate(-261.94104,-261.75468)">
    <path
       style="fill:#000000;stroke-width:0.26458332"
       d="m 267.26201,280.80582 c -4.61295,-1.64883 -6.61537,-6.64099 -4.44399,-11.07913 1.24359,-2.54182 4.15409,-4.32232 7.06548,-4.32232 h 1.36669 l -0.97974,-1.00335 c -0.53885,-0.55184 -0.97974,-1.25163 -0.97974,-1.5551 0,-0.74636 0.65372,-1.23823 1.39756,-1.05154 0.78242,0.19638 4.68786,4.19574 4.68786,4.80061 0,0.52724 -3.81315,4.54516 -4.5292,4.77243 -0.70696,0.22438 -1.55622,-0.33666 -1.55622,-1.02807 0,-0.33146 0.35719,-0.94486 0.79375,-1.36311 1.00509,-0.96293 0.99831,-1.19062 -0.0354,-1.19062 -1.51233,0 -2.98185,0.62541 -4.10528,1.74718 -2.50365,2.49994 -1.94707,6.77478 1.10585,8.49344 3.42908,1.93044 7.22698,0.18573 8.17798,-3.75685 0.25537,-1.05868 0.62128,-1.45669 1.33919,-1.45669 1.33445,0 1.44983,1.49421 0.3056,3.95759 -1.63367,3.51709 -5.96837,5.3373 -9.61034,4.03553 z"
       id="path47"
       inkscape:connector-curvature="0" />
  </g>
</svg>
