<?xml version="1.0" encoding="UTF-8" standalone="no"?>
<!-- Created with Inkscape (http://www.inkscape.org/) -->

<svg
   xmlns:dc="http://purl.org/dc/elements/1.1/"
   xmlns:cc="http://creativecommons.org/ns#"
   xmlns:rdf="http://www.w3.org/1999/02/22-rdf-syntax-ns#"
   xmlns:svg="http://www.w3.org/2000/svg"
   xmlns="http://www.w3.org/2000/svg"
   xmlns:sodipodi="http://sodipodi.sourceforge.net/DTD/sodipodi-0.dtd"
   xmlns:inkscape="http://www.inkscape.org/namespaces/inkscape"
   width="15.64436mm"
   height="22.43539mm"
   viewBox="0 0 15.64436 22.43539"
   version="1.1"
   id="svg8"
   inkscape:version="0.92.1 r15371"
   sodipodi:docname="9.svg">
  <defs
     id="defs2" />
  <sodipodi:namedview
     id="base"
     pagecolor="#ffffff"
     bordercolor="#666666"
     borderopacity="1.0"
     inkscape:pageopacity="0.0"
     inkscape:pageshadow="2"
     inkscape:zoom="1.4"
     inkscape:cx="298.6397"
     inkscape:cy="11.065947"
     inkscape:document-units="mm"
     inkscape:current-layer="layer1"
     showgrid="false"
     fit-margin-top="0"
     fit-margin-left="0"
     fit-margin-right="0"
     fit-margin-bottom="0"
     inkscape:window-width="1920"
     inkscape:window-height="1017"
     inkscape:window-x="-8"
     inkscape:window-y="-8"
     inkscape:window-maximized="1" />
  <metadata
     id="metadata5">
    <rdf:RDF>
      <cc:Work
         rdf:about="">
        <dc:format>image/svg+xml</dc:format>
        <dc:type
           rdf:resource="http://purl.org/dc/dcmitype/StillImage" />
        <dc:title></dc:title>
      </cc:Work>
    </rdf:RDF>
  </metadata>
  <g
     inkscape:label="Layer 1"
     inkscape:groupmode="layer"
     id="layer1"
     transform="translate(-122.92512,-188.29154)">
    <path
       style="fill:#000000;stroke-width:0.26458335"
       d="m 123.24546,210.26391 c -0.10041,-0.25466 -0.21356,-2.30849 -0.25144,-4.56406 l -0.0689,-4.10104 3.53562,-6.11526 c 1.9446,-3.36339 3.75665,-6.31528 4.02679,-6.55975 0.27013,-0.24447 0.91361,-0.51304 1.42995,-0.59683 0.79393,-0.12884 1.30198,0.0555 3.29237,1.1945 2.93928,1.68202 3.37987,2.1506 3.35894,3.5723 -0.0135,0.91648 -0.60273,2.09675 -3.58563,7.18212 -3.42381,5.83707 -3.62784,6.12051 -4.99923,6.94531 l -1.42975,0.8599 h 3.32073 c 2.88104,0 3.3787,0.0641 3.7586,0.48385 0.56914,0.62889 0.55442,1.18076 -0.046,1.7241 -0.41946,0.37961 -1.26082,0.43788 -6.32169,0.43788 -5.3139,0 -5.85422,-0.0415 -6.02042,-0.46302 z m 4.75617,-5.3294 c 1.49073,-0.93215 1.72927,-1.23342 3.91311,-4.94231 3.12336,-5.30449 3.29978,-5.6364 2.75636,-5.18563 -0.36144,0.29981 -0.66898,0.2146 -2.0914,-0.57953 l -1.66765,-0.93103 -2.44739,4.23834 -2.4474,4.23834 v 2.09587 c 0,1.15273 0.0893,2.08749 0.19844,2.07724 0.10914,-0.0102 0.91281,-0.46533 1.78593,-1.01129 z"
       id="path34"
       inkscape:connector-curvature="0" />
  </g>
</svg>
