<?xml version="1.0" encoding="UTF-8" standalone="no"?>
<!-- Created with Inkscape (http://www.inkscape.org/) -->

<svg
   xmlns:dc="http://purl.org/dc/elements/1.1/"
   xmlns:cc="http://creativecommons.org/ns#"
   xmlns:rdf="http://www.w3.org/1999/02/22-rdf-syntax-ns#"
   xmlns:svg="http://www.w3.org/2000/svg"
   xmlns="http://www.w3.org/2000/svg"
   xmlns:sodipodi="http://sodipodi.sourceforge.net/DTD/sodipodi-0.dtd"
   xmlns:inkscape="http://www.inkscape.org/namespaces/inkscape"
   width="15.432729mm"
   height="16.948221mm"
   viewBox="0 0 15.432728 16.94822"
   version="1.1"
   id="svg8"
   inkscape:version="0.92.1 r15371"
   sodipodi:docname="comics.svg">
  <defs
     id="defs2" />
  <sodipodi:namedview
     id="base"
     pagecolor="#ffffff"
     bordercolor="#666666"
     borderopacity="1.0"
     inkscape:pageopacity="0.0"
     inkscape:pageshadow="2"
     inkscape:zoom="2.8"
     inkscape:cx="-114.18374"
     inkscape:cy="64.303865"
     inkscape:document-units="mm"
     inkscape:current-layer="layer1"
     showgrid="false"
     fit-margin-top="0"
     fit-margin-left="0"
     fit-margin-right="0"
     fit-margin-bottom="0"
     inkscape:window-width="1920"
     inkscape:window-height="1017"
     inkscape:window-x="-8"
     inkscape:window-y="-8"
     inkscape:window-maximized="1" />
  <metadata
     id="metadata5">
    <rdf:RDF>
      <cc:Work
         rdf:about="">
        <dc:format>image/svg+xml</dc:format>
        <dc:type
           rdf:resource="http://purl.org/dc/dcmitype/StillImage" />
        <dc:title></dc:title>
      </cc:Work>
    </rdf:RDF>
  </metadata>
  <g
     inkscape:label="Layer 1"
     inkscape:groupmode="layer"
     id="layer1"
     transform="translate(-260.10922,-267.41434)">
    <path
       style="fill:#000000;stroke-width:0.26458335"
       d=""
       id="path21"
       inkscape:connector-curvature="0" />
    <g
       id="g872"
       transform="translate(23.245536,-4.5357143)">
      <path
         style="fill:#eaebec;stroke-width:0.26458332"
         d="m 247.54257,285.21815 c -0.0728,0 0.14734,-0.29766 0.48911,-0.66146 0.34178,-0.3638 0.68094,-0.66146 0.7537,-0.66146 0.0728,0 -0.14734,0.29766 -0.48911,0.66146 -0.34178,0.3638 -0.68094,0.66146 -0.7537,0.66146 z"
         id="path884"
         inkscape:connector-curvature="0" />
      <path
         style="fill:#d1d2d4;stroke-width:0.26458332"
         d="m 244.5921,282.74795 c -1.09141,0 -1.53789,-0.0467 -0.99219,-0.10379 0.54571,-0.0571 1.43867,-0.0571 1.98438,0 0.5457,0.0571 0.0992,0.10379 -0.99219,0.10379 z"
         id="path882"
         inkscape:connector-curvature="0" />
      <path
         style="fill:#a6a9ad;stroke-width:0.26458332"
         d="m 243.79835,279.06067 c -0.65484,0 -0.92273,-0.0516 -0.59531,-0.11466 0.32742,-0.0631 0.8632,-0.0631 1.19062,0 0.32742,0.0631 0.0595,0.11466 -0.59531,0.11466 z"
         id="path880"
         inkscape:connector-curvature="0" />
      <path
         style="fill:#9a9da2;stroke-width:0.26458332"
         d="m 250.59284,288.89107 c -0.31723,-0.0172 -2.23268,-0.31182 -4.25657,-0.65473 -2.02388,-0.34291 -4.06767,-0.75148 -4.54176,-0.90795 -0.47408,-0.15646 -1.40967,-0.76658 -2.07908,-1.35582 -0.66941,-0.58923 -1.50411,-1.56558 -1.85489,-2.16965 -0.35079,-0.60407 -0.74855,-1.71889 -0.88393,-2.47739 -0.1355,-0.7592 -0.15133,-1.97885 -0.0352,-2.71345 0.11601,-0.73391 0.54198,-1.94263 0.9466,-2.68604 0.40462,-0.74342 1.22571,-1.75322 1.82464,-2.244 0.59894,-0.49078 1.61441,-1.08125 2.25661,-1.31216 0.6422,-0.2309 1.82248,-0.41983 2.62284,-0.41983 0.80036,0 1.98064,0.18893 2.62284,0.41983 0.6422,0.23091 1.67807,0.83809 2.30193,1.3493 0.70731,0.57959 1.44505,1.5607 1.9598,2.60631 0.69097,1.40354 0.82454,1.981 0.81961,3.5431 -0.003,1.09355 -0.18042,2.28613 -0.4274,2.88031 -0.23183,0.55772 -0.77584,1.45668 -1.20891,1.99769 -0.78742,0.98365 -0.78742,0.98365 -0.13889,2.57969 0.64853,1.59604 0.64853,1.59604 0.0718,1.56479 z m -2.6273,-1.8382 c 0.1819,0.01 0.33073,-0.0366 0.33073,-0.10248 0,-0.0659 -0.13586,-0.41802 -0.30191,-0.78246 -0.26636,-0.58459 -0.20425,-0.77384 0.52754,-1.6073 0.4562,-0.51958 1.08037,-1.43653 1.38704,-2.03766 0.45163,-0.88527 0.53936,-1.45403 0.46164,-2.99307 -0.0772,-1.52955 -0.2377,-2.11431 -0.82281,-2.99846 -0.39977,-0.6041 -1.22316,-1.42679 -1.82975,-1.82822 -0.96252,-0.63696 -1.3604,-0.72986 -3.12592,-0.72986 -1.76552,0 -2.1634,0.0929 -3.12592,0.72986 -0.60659,0.40143 -1.42998,1.22412 -1.82975,1.82822 -0.58815,0.88875 -0.74548,1.46708 -0.82443,3.0305 -0.0804,1.59212 0.007,2.14762 0.49513,3.1565 0.33892,0.70012 1.04826,1.55436 1.65669,1.9951 0.5852,0.42392 1.55167,0.89142 2.1477,1.03889 0.59604,0.14748 1.85761,0.4965 2.8035,0.77561 0.94588,0.27911 1.86862,0.51528 2.05052,0.52483 z"
         id="path878"
         inkscape:connector-curvature="0" />
      <path
         style="fill:#82868e;stroke-width:0.26458332"
         d="m 243.93064,276.94039 c -0.7276,-0.002 -0.99386,-0.0534 -0.59167,-0.11418 0.40218,-0.0608 0.99749,-0.0592 1.32291,0.004 0.32542,0.0628 -0.004,0.11256 -0.73124,0.11057 z"
         id="path876"
         inkscape:connector-curvature="0" />
      <path
         style="fill:#565b66;stroke-width:0.26458332"
         d="m 244.50431,282.55143 c -1.04312,-0.0115 -2.04541,-0.0809 -2.22731,-0.15434 -0.18191,-0.0734 -0.33073,-0.417 -0.33073,-0.76355 0,-0.35218 0.22573,-0.75092 0.51177,-0.904 0.28147,-0.15064 1.2418,-0.27389 2.13406,-0.27389 0.89226,0 1.85259,0.12325 2.13406,0.27389 0.28383,0.1519 0.51177,0.55175 0.51177,0.89774 0,0.34311 -0.18833,0.69611 -0.41851,0.78444 -0.23018,0.0883 -1.27198,0.1512 -2.31511,0.13971 z m -0.74666,-3.68328 c -1.11746,0 -1.60516,-0.1088 -1.70977,-0.38142 -0.0805,-0.20978 -0.1053,-0.59673 -0.0551,-0.8599 0.0753,-0.3947 0.3997,-0.49208 1.85295,-0.55622 1.5905,-0.0702 1.77876,-0.024 1.93735,0.47572 0.0969,0.30543 0.0328,0.72563 -0.14317,0.93764 -0.21291,0.25653 -0.8383,0.38418 -1.88225,0.38418 z"
         id="path874"
         inkscape:connector-curvature="0" />
    </g>
  </g>
</svg>
