<?xml version="1.0" encoding="UTF-8" standalone="no"?>
<!-- Created with Inkscape (http://www.inkscape.org/) -->

<svg
   xmlns:dc="http://purl.org/dc/elements/1.1/"
   xmlns:cc="http://creativecommons.org/ns#"
   xmlns:rdf="http://www.w3.org/1999/02/22-rdf-syntax-ns#"
   xmlns:svg="http://www.w3.org/2000/svg"
   xmlns="http://www.w3.org/2000/svg"
   xmlns:sodipodi="http://sodipodi.sourceforge.net/DTD/sodipodi-0.dtd"
   xmlns:inkscape="http://www.inkscape.org/namespaces/inkscape"
   width="15.854942mm"
   height="15.830206mm"
   viewBox="0 0 15.854942 15.830206"
   version="1.1"
   id="svg8"
   inkscape:version="0.92.1 r15371"
   sodipodi:docname="logo-img.svg">
  <defs
     id="defs2" />
  <sodipodi:namedview
     id="base"
     pagecolor="#ffffff"
     bordercolor="#666666"
     borderopacity="1.0"
     inkscape:pageopacity="0.0"
     inkscape:pageshadow="2"
     inkscape:zoom="1.979899"
     inkscape:cx="-5.4947222"
     inkscape:cy="54.636528"
     inkscape:document-units="mm"
     inkscape:current-layer="layer1"
     showgrid="false"
     fit-margin-top="0"
     fit-margin-left="0"
     fit-margin-right="0"
     fit-margin-bottom="0"
     inkscape:window-width="1920"
     inkscape:window-height="1017"
     inkscape:window-x="-8"
     inkscape:window-y="-8"
     inkscape:window-maximized="1" />
  <metadata
     id="metadata5">
    <rdf:RDF>
      <cc:Work
         rdf:about="">
        <dc:format>image/svg+xml</dc:format>
        <dc:type
           rdf:resource="http://purl.org/dc/dcmitype/StillImage" />
        <dc:title></dc:title>
      </cc:Work>
    </rdf:RDF>
  </metadata>
  <g
     inkscape:label="Layer 1"
     inkscape:groupmode="layer"
     id="layer1"
     transform="translate(-126.21854,-135.69587)">
    <g
       id="g41"
       transform="translate(23.786988,1.6036172)">
      <path
         style="fill:#ec9ca0;stroke-width:0.26458332"
         d="m 107.34701,149.5146 c -1.89091,-0.57725 -3.91391,-2.66586 -4.48504,-4.6305 -0.23673,-0.81432 -0.43042,-2.09878 -0.43042,-2.85435 0,-2.40028 0.6898,-4.16389 2.2317,-5.7058 1.54191,-1.5419 3.30552,-2.2317 5.7058,-2.2317 2.40028,0 4.16389,0.6898 5.7058,2.2317 1.04634,1.04634 1.47276,1.72138 1.80128,2.85145 0.54715,1.88211 0.54715,3.82659 0,5.7087 -0.6017,2.06977 -2.58296,4.05103 -4.65273,4.65273 -1.79614,0.52215 -4.122,0.51336 -5.87639,-0.0222 z m 5.48258,-2.35642 c 2.09131,-1.05664 3.09571,-2.72139 3.09571,-5.13103 0,-3.38524 -2.16943,-5.55365 -5.55625,-5.55365 -3.38682,0 -5.55625,2.16841 -5.55625,5.55365 0,2.38143 0.98134,4.03248 3.04271,5.11921 1.06601,0.56199 3.87197,0.56865 4.97408,0.0118 z m -4.57721,-5.12843 c 0,-2.58069 0.0518,-2.91042 0.45695,-2.91042 0.75659,0 4.57014,2.44049 4.57014,2.92467 0,0.51036 -3.71117,2.89617 -4.50505,2.89617 -0.48802,0 -0.52204,-0.18964 -0.52204,-2.91042 z"
         id="path55"
         inkscape:connector-curvature="0" />
      <path
         style="fill:#9fa2a8;stroke-width:0.26458332"
         d="m 107.85347,149.50802 c -5.57933,-1.99762 -7.1868,-8.88839 -3.04067,-13.03452 1.62393,-1.62393 3.14849,-2.23801 5.55625,-2.23801 2.40776,0 3.93232,0.61408 5.55625,2.23801 1.62393,1.62393 2.23801,3.14849 2.23801,5.55625 0,2.40776 -0.61408,3.93232 -2.23801,5.55625 -2.10351,2.10351 -5.38355,2.88453 -8.07183,1.92202 z m 4.97612,-2.08452 c 2.19848,-1.10885 3.36029,-2.97372 3.36029,-5.39375 0,-3.42639 -2.39337,-5.82083 -5.81823,-5.82083 -3.42912,0 -5.82343,2.39217 -5.82343,5.81823 0,2.39547 1.13319,4.24039 3.30729,5.38453 1.06551,0.56073 3.87254,0.56741 4.97408,0.0118 z m -4.57721,-5.39375 c 0,-2.58069 0.0518,-2.91042 0.45695,-2.91042 0.75659,0 4.57014,2.44049 4.57014,2.92467 0,0.51036 -3.71117,2.89617 -4.50505,2.89617 -0.48802,0 -0.52204,-0.18964 -0.52204,-2.91042 z"
         id="path53"
         inkscape:connector-curvature="0" />
      <path
         style="fill:#e77d81;stroke-width:0.26458332"
         d="m 107.85347,149.50802 c -5.57933,-1.99762 -7.1868,-8.88839 -3.04067,-13.03452 1.62393,-1.62393 3.14849,-2.23801 5.55625,-2.23801 2.40776,0 3.93232,0.61408 5.55625,2.23801 1.62393,1.62393 2.23801,3.14849 2.23801,5.55625 0,2.40776 -0.61408,3.93232 -2.23801,5.55625 -2.10351,2.10351 -5.38355,2.88453 -8.07183,1.92202 z m 4.97612,-2.08452 c 2.19848,-1.10885 3.36029,-2.97372 3.36029,-5.39375 0,-3.42639 -2.39337,-5.82083 -5.81823,-5.82083 -3.42912,0 -5.82343,2.39217 -5.82343,5.81823 0,2.39547 1.13319,4.24039 3.30729,5.38453 1.06551,0.56073 3.87254,0.56741 4.97408,0.0118 z m -4.31262,-5.24584 c 0,-1.37386 0.11123,-2.56668 0.24718,-2.6507 0.28308,-0.17495 4.25073,2.16117 4.25073,2.50279 0,0.25066 -3.84077,2.64583 -4.24271,2.64583 -0.14586,0 -0.2552,-1.07027 -0.2552,-2.49792 z"
         id="path51"
         inkscape:connector-curvature="0" />
      <path
         style="fill:#e0595e;stroke-width:0.26458332"
         d="m 108.91384,149.80141 c -2.34223,-0.59884 -4.48862,-2.33108 -5.59298,-4.51381 -3.20351,-6.33162 3.97442,-13.50955 10.30604,-10.30604 6.1116,3.09219 6.03393,11.1991 -0.13594,14.18907 -1.13573,0.55038 -3.57613,0.8867 -4.57712,0.63078 z m 3.83646,-2.23764 c 0.65484,-0.29688 1.47427,-0.80028 1.82095,-1.11867 0.95459,-0.87669 1.87851,-3.05261 1.87482,-4.41535 -0.004,-1.30801 -0.75958,-3.21996 -1.66167,-4.2022 -0.87669,-0.95459 -3.05261,-1.87851 -4.41535,-1.87482 -1.30801,0.004 -3.21996,0.75958 -4.2022,1.66167 -0.95124,0.87361 -1.87805,3.05257 -1.87805,4.41535 0,1.36278 0.92681,3.54174 1.87805,4.41535 0.98436,0.90404 2.8959,1.65845 4.2022,1.65845 0.65484,0 1.72641,-0.24291 2.38125,-0.53978 z m -4.23333,-5.38611 c 0,-1.37386 0.11123,-2.56668 0.24718,-2.6507 0.28308,-0.17495 4.25073,2.16117 4.25073,2.50279 0,0.25066 -3.84077,2.64583 -4.24271,2.64583 -0.14586,0 -0.2552,-1.07027 -0.2552,-2.49792 z"
         id="path49"
         inkscape:connector-curvature="0" />
      <path
         style="fill:#797d86;stroke-width:0.26458332"
         d="m 109.04613,149.78459 c -0.3638,-0.0744 -0.72099,-0.21257 -0.79375,-0.30703 -0.0728,-0.0945 -0.70194,-0.45838 -1.39818,-0.80869 -1.41751,-0.7132 -2.65245,-1.98971 -3.31715,-3.4288 -0.24422,-0.52875 -0.55785,-1.04307 -0.69695,-1.14293 -0.1391,-0.0999 -0.25291,-1.03019 -0.25291,-2.06739 0,-1.0372 0.11381,-1.96752 0.25291,-2.06739 0.1391,-0.0999 0.53952,-0.75122 0.88983,-1.44746 0.7132,-1.41751 1.98971,-2.65245 3.4288,-3.31715 0.52875,-0.24422 1.04307,-0.55785 1.14293,-0.69695 0.23666,-0.32963 3.89812,-0.32963 4.13478,0 0.0999,0.1391 0.61418,0.45273 1.14293,0.69695 1.43909,0.6647 2.7156,1.89964 3.4288,3.31715 0.35031,0.69624 0.75073,1.3476 0.88983,1.44746 0.1391,0.0999 0.25291,1.03019 0.25291,2.06739 0,1.0372 -0.11381,1.96752 -0.25291,2.06739 -0.1391,0.0999 -0.45273,0.61418 -0.69695,1.14293 -0.6647,1.43909 -1.89964,2.7156 -3.31715,3.4288 -0.69624,0.35031 -1.32766,0.71847 -1.40315,0.81813 -0.1901,0.25097 -2.62917,0.4623 -3.43462,0.29759 z m 4.00513,-2.07431 c 2.30557,-1.16429 3.51593,-3.11981 3.51593,-5.68053 0,-3.6384 -2.56076,-6.19988 -6.19814,-6.19988 -3.63686,0 -6.19716,2.56067 -6.19901,6.19988 -0.002,2.96283 1.64436,5.14724 4.6098,6.1182 0.96386,0.31559 3.24202,0.0822 4.27142,-0.43767 z m -4.53429,-5.53262 c 0,-1.37386 0.11123,-2.56668 0.24718,-2.6507 0.28308,-0.17495 4.25073,2.16117 4.25073,2.50279 0,0.25066 -3.84077,2.64583 -4.24271,2.64583 -0.14586,0 -0.2552,-1.07027 -0.2552,-2.49792 z"
         id="path47"
         inkscape:connector-curvature="0" />
      <path
         style="fill:#d7262d;stroke-width:0.26458332"
         d="m 109.04613,149.78459 c -0.3638,-0.0744 -0.72099,-0.21257 -0.79375,-0.30703 -0.0728,-0.0945 -0.70194,-0.45838 -1.39818,-0.80869 -1.41751,-0.7132 -2.65245,-1.98971 -3.31715,-3.4288 -0.24422,-0.52875 -0.55785,-1.04307 -0.69695,-1.14293 -0.1391,-0.0999 -0.25291,-1.03019 -0.25291,-2.06739 0,-1.0372 0.11381,-1.96752 0.25291,-2.06739 0.1391,-0.0999 0.53952,-0.75122 0.88983,-1.44746 0.7132,-1.41751 1.98971,-2.65245 3.4288,-3.31715 0.52875,-0.24422 1.04307,-0.55785 1.14293,-0.69695 0.23666,-0.32963 3.89812,-0.32963 4.13478,0 0.0999,0.1391 0.61418,0.45273 1.14293,0.69695 1.43909,0.6647 2.7156,1.89964 3.4288,3.31715 0.35031,0.69624 0.75073,1.3476 0.88983,1.44746 0.1391,0.0999 0.25291,1.03019 0.25291,2.06739 0,1.0372 -0.11381,1.96752 -0.25291,2.06739 -0.1391,0.0999 -0.45273,0.61418 -0.69695,1.14293 -0.6647,1.43909 -1.89964,2.7156 -3.31715,3.4288 -0.69624,0.35031 -1.32766,0.71847 -1.40315,0.81813 -0.1901,0.25097 -2.62917,0.4623 -3.43462,0.29759 z m 4.00513,-2.07431 c 2.30557,-1.16429 3.51593,-3.11981 3.51593,-5.68053 0,-3.6384 -2.56076,-6.19988 -6.19814,-6.19988 -3.63686,0 -6.19716,2.56067 -6.19901,6.19988 -0.002,2.96283 1.64436,5.14724 4.6098,6.1182 0.96386,0.31559 3.24202,0.0822 4.27142,-0.43767 z m -4.26971,-5.68053 c 0,-1.33394 0.0988,-2.38566 0.21965,-2.33715 0.55416,0.2225 3.74037,2.22071 3.74448,2.34832 0.004,0.12348 -3.14541,2.0769 -3.75004,2.32598 -0.11775,0.0485 -0.21409,-1.00321 -0.21409,-2.33715 z"
         id="path45"
         inkscape:connector-curvature="0" />
      <path
         style="fill:#5a5f69;stroke-width:0.26458332"
         d="m 108.78155,142.02975 c 0,-1.33394 0.0988,-2.38566 0.21965,-2.33715 0.55416,0.2225 3.74037,2.22071 3.74448,2.34832 0.004,0.12348 -3.14541,2.0769 -3.75004,2.32598 -0.11775,0.0485 -0.21409,-1.00321 -0.21409,-2.33715 z"
         id="path43"
         inkscape:connector-curvature="0" />
    </g>
  </g>
</svg>
