<?xml version="1.0" encoding="UTF-8" standalone="no"?>
<!-- Created with Inkscape (http://www.inkscape.org/) -->

<svg
   xmlns:dc="http://purl.org/dc/elements/1.1/"
   xmlns:cc="http://creativecommons.org/ns#"
   xmlns:rdf="http://www.w3.org/1999/02/22-rdf-syntax-ns#"
   xmlns:svg="http://www.w3.org/2000/svg"
   xmlns="http://www.w3.org/2000/svg"
   xmlns:sodipodi="http://sodipodi.sourceforge.net/DTD/sodipodi-0.dtd"
   xmlns:inkscape="http://www.inkscape.org/namespaces/inkscape"
   width="15.828882mm"
   height="15.005334mm"
   viewBox="0 0 15.828881 15.005333"
   version="1.1"
   id="svg8"
   inkscape:version="0.92.1 r15371"
   sodipodi:docname="more.svg">
  <defs
     id="defs2" />
  <sodipodi:namedview
     id="base"
     pagecolor="#ffffff"
     bordercolor="#666666"
     borderopacity="1.0"
     inkscape:pageopacity="0.0"
     inkscape:pageshadow="2"
     inkscape:zoom="2.8"
     inkscape:cx="-117.93014"
     inkscape:cy="64.413598"
     inkscape:document-units="mm"
     inkscape:current-layer="layer1"
     showgrid="false"
     fit-margin-top="0"
     fit-margin-left="0"
     fit-margin-right="0"
     fit-margin-bottom="0"
     inkscape:window-width="1920"
     inkscape:window-height="1017"
     inkscape:window-x="-8"
     inkscape:window-y="-8"
     inkscape:window-maximized="1" />
  <metadata
     id="metadata5">
    <rdf:RDF>
      <cc:Work
         rdf:about="">
        <dc:format>image/svg+xml</dc:format>
        <dc:type
           rdf:resource="http://purl.org/dc/dcmitype/StillImage" />
        <dc:title></dc:title>
      </cc:Work>
    </rdf:RDF>
  </metadata>
  <g
     inkscape:label="Layer 1"
     inkscape:groupmode="layer"
     id="layer1"
     transform="translate(-261.10045,-269.38626)">
    <path
       style="fill:#000000;stroke-width:0.26458335"
       d=""
       id="path21"
       inkscape:connector-curvature="0" />
    <g
       id="g897"
       transform="translate(25.135417,-3.0238095)">
      <path
         style="fill:#ebeced;stroke-width:0.26458332"
         d="m 242.98505,273.76669 c -0.0633,0.32912 -0.11747,0.12215 -0.12041,-0.45994 -0.003,-0.58208 0.0488,-0.85136 0.11507,-0.5984 0.0662,0.25297 0.0686,0.72922 0.005,1.05834 z"
         id="path923"
         inkscape:connector-curvature="0" />
      <path
         style="fill:#e2e3e4;stroke-width:0.26458332"
         d="m 251.45398,275.55571 c -0.0413,0 -0.72596,-0.68461 -1.52135,-1.52135 -1.44617,-1.52136 -1.44617,-1.52136 0.0752,-0.0752 0.83675,0.7954 1.52136,1.48 1.52136,1.52136 0,0.0414 -0.0338,0.0752 -0.0752,0.0752 z"
         id="path921"
         inkscape:connector-curvature="0" />
      <path
         style="fill:#d9dbdc;stroke-width:0.26458332"
         d="m 249.86614,283.96097 c -0.0604,0.39758 -0.10856,0.008 -0.10707,-0.86464 0.001,-0.87312 0.0509,-1.19841 0.10977,-0.72286 0.0589,0.47555 0.0577,1.18992 -0.003,1.5875 z"
         id="path919"
         inkscape:connector-curvature="0" />
      <path
         style="fill:#d5d6d9;stroke-width:0.26458332"
         d="m 237.96764,282.38211 c -0.0484,1.26595 -0.0878,0.1586 -0.0875,-2.46078 2.8e-4,-2.61937 0.0399,-3.65514 0.088,-2.30172 0.0481,1.35343 0.0479,3.49656 -5e-4,4.7625 z"
         id="path917"
         inkscape:connector-curvature="0" />
      <path
         style="fill:#d0d1d4;stroke-width:0.26458332"
         d="m 243.85625,285.49913 c -2.83766,0 -3.99852,-0.0389 -2.57969,-0.0865 1.41883,-0.0476 3.74055,-0.0476 5.15938,0 1.41883,0.0476 0.25797,0.0865 -2.57969,0.0865 z"
         id="path915"
         inkscape:connector-curvature="0" />
      <path
         style="fill:#caccce;stroke-width:0.26458332"
         d="m 240.81354,274.40667 c -1.16417,9.7e-4 -1.67333,-0.0448 -1.13147,-0.10162 0.54186,-0.0568 1.49436,-0.0576 2.11667,-0.002 0.62231,0.0559 0.17897,0.1024 -0.9852,0.10336 z"
         id="path913"
         inkscape:connector-curvature="0" />
      <path
         style="fill:#c1c3c6;stroke-width:0.26458332"
         d="m 250.86771,281.5744 c -0.58209,-0.003 -0.78906,-0.0571 -0.45994,-0.1204 0.32912,-0.0633 0.80537,-0.0609 1.05834,0.005 0.25296,0.0662 -0.0163,0.118 -0.5984,0.11506 z"
         id="path911"
         inkscape:connector-curvature="0" />
      <path
         style="fill:#b6b9bb;stroke-width:0.26458332"
         d="m 240.28437,272.54866 c -1.4552,-6.9e-4 -2.01676,-0.0451 -1.2479,-0.0987 0.76887,-0.0536 1.95949,-0.0531 2.64584,0.001 0.68634,0.0543 0.0573,0.0982 -1.39794,0.0975 z"
         id="path909"
         inkscape:connector-curvature="0" />
      <path
         style="fill:#b2b5b8;stroke-width:0.26458332"
         d="m 244.18013,287.39909 c -4.70236,0.052 -6.44163,-0.0157 -6.93325,-0.26979 -0.36093,-0.18658 -0.80906,-0.63454 -0.99583,-0.99547 -0.2531,-0.48913 -0.32181,-2.14844 -0.26979,-6.51604 0.0635,-5.33429 0.11498,-5.9097 0.57381,-6.41615 0.45318,-0.50022 0.79349,-0.55635 3.37344,-0.55635 2.86941,0 2.86941,0 2.86941,0.79375 0,0.79375 0,0.79375 -2.00177,0.79375 -1.10098,0 -2.23207,0.12325 -2.51354,0.2739 -0.47879,0.25623 -0.51178,0.60242 -0.51178,5.37104 0,3.61167 0.0925,5.18968 0.3175,5.41465 0.2264,0.22639 1.88148,0.3175 5.76792,0.3175 3.88644,0 5.54152,-0.0911 5.76792,-0.3175 0.17975,-0.17975 0.3175,-1.0407 0.3175,-1.98438 0,-1.66687 0,-1.66687 0.95319,-1.66687 0.95319,0 0.95319,0 0.85989,2.24171 -0.0794,1.90701 -0.1832,2.33167 -0.69546,2.84427 -0.58846,0.58885 -0.745,0.60414 -6.87916,0.67198 z"
         id="path907"
         inkscape:connector-curvature="0" />
      <path
         style="fill:#a3a5ab;stroke-width:0.26458332"
         d="m 248.34014,275.38053 c -0.065,0.058 -0.40568,-0.26582 -0.75697,-0.71958 -0.63871,-0.82503 -0.63871,-0.82503 0.11826,-0.10545 0.41633,0.39578 0.70375,0.76704 0.63871,0.82503 z"
         id="path905"
         inkscape:connector-curvature="0" />
      <path
         style="fill:#646973;stroke-width:0.26458332"
         d="m 251.45474,275.82029 c -0.0409,0 -0.78508,-0.74414 -1.65365,-1.65364 -1.57922,-1.65365 -1.57922,-1.65365 0.0744,-0.0744 0.90951,0.86857 1.65365,1.61271 1.65365,1.65365 0,0.0409 -0.0335,0.0744 -0.0744,0.0744 z"
         id="path903"
         inkscape:connector-curvature="0" />
      <path
         style="fill:#595e68;stroke-width:0.26458332"
         d="m 248.92338,279.52446 c -0.0728,0 0.14735,-0.29766 0.48912,-0.66146 0.34177,-0.3638 0.68094,-0.66146 0.7537,-0.66146 0.0728,0 -0.14734,0.29766 -0.48912,0.66146 -0.34177,0.3638 -0.68094,0.66146 -0.7537,0.66146 z"
         id="path901"
         inkscape:connector-curvature="0" />
      <path
         style="fill:#565b66;stroke-width:0.26458332"
         d="m 241.15885,282.22971 c -0.18992,0.07 -0.49414,0.0753 -0.67604,0.0118 -0.1819,-0.0634 -0.33073,-0.43932 -0.33073,-0.83527 0,-0.39594 0.33718,-1.25156 0.74928,-1.90138 0.4121,-0.64981 1.15624,-1.52539 1.65364,-1.94573 0.49741,-0.42034 1.41933,-0.99307 2.04872,-1.27273 0.62938,-0.27967 1.7968,-0.57583 2.59425,-0.65813 1.44992,-0.14965 1.44992,-0.14965 0.61681,-1.0092 -0.48155,-0.49683 -0.79345,-1.06545 -0.73913,-1.3475 0.0517,-0.26838 0.31583,-0.53068 0.58698,-0.5829 0.32549,-0.0627 1.06621,0.47314 2.17978,1.57681 0.92772,0.91947 1.68413,1.8538 1.68091,2.07629 -0.003,0.22248 -0.78635,1.21503 -1.7403,2.20566 -0.95395,0.99064 -1.86555,1.75746 -2.02577,1.70405 -0.16023,-0.0534 -0.41555,-0.29405 -0.56738,-0.53476 -0.21591,-0.34229 -0.11914,-0.60143 0.44412,-1.18935 0.3961,-0.41344 0.72018,-0.83449 0.72018,-0.93567 0,-0.10117 -0.37314,-0.18396 -0.8292,-0.18396 -0.45606,0 -1.2904,0.13818 -1.85409,0.30707 -0.56369,0.16888 -1.4856,0.70141 -2.04868,1.18339 -0.56308,0.48198 -1.27,1.40011 -1.57091,2.04028 -0.30092,0.64018 -0.70252,1.22121 -0.89244,1.29118 z"
         id="path899"
         inkscape:connector-curvature="0" />
    </g>
  </g>
</svg>
