<?xml version="1.0" encoding="UTF-8" standalone="no"?>
<!-- Created with Inkscape (http://www.inkscape.org/) -->

<svg
   xmlns:dc="http://purl.org/dc/elements/1.1/"
   xmlns:cc="http://creativecommons.org/ns#"
   xmlns:rdf="http://www.w3.org/1999/02/22-rdf-syntax-ns#"
   xmlns:svg="http://www.w3.org/2000/svg"
   xmlns="http://www.w3.org/2000/svg"
   xmlns:sodipodi="http://sodipodi.sourceforge.net/DTD/sodipodi-0.dtd"
   xmlns:inkscape="http://www.inkscape.org/namespaces/inkscape"
   width="15.86777mm"
   height="11.975846mm"
   viewBox="0 0 15.867769 11.975846"
   version="1.1"
   id="svg8"
   inkscape:version="0.92.1 r15371"
   sodipodi:docname="movie.svg">
  <defs
     id="defs2" />
  <sodipodi:namedview
     id="base"
     pagecolor="#ffffff"
     bordercolor="#666666"
     borderopacity="1.0"
     inkscape:pageopacity="0.0"
     inkscape:pageshadow="2"
     inkscape:zoom="2.8"
     inkscape:cx="-126.85869"
     inkscape:cy="53.605261"
     inkscape:document-units="mm"
     inkscape:current-layer="layer1"
     showgrid="false"
     fit-margin-top="0"
     fit-margin-left="0"
     fit-margin-right="0"
     fit-margin-bottom="0"
     inkscape:window-width="1920"
     inkscape:window-height="1017"
     inkscape:window-x="-8"
     inkscape:window-y="-8"
     inkscape:window-maximized="1" />
  <metadata
     id="metadata5">
    <rdf:RDF>
      <cc:Work
         rdf:about="">
        <dc:format>image/svg+xml</dc:format>
        <dc:type
           rdf:resource="http://purl.org/dc/dcmitype/StillImage" />
        <dc:title></dc:title>
      </cc:Work>
    </rdf:RDF>
  </metadata>
  <g
     inkscape:label="Layer 1"
     inkscape:groupmode="layer"
     id="layer1"
     transform="translate(-263.4628,-269.55604)">
    <path
       style="fill:#000000;stroke-width:0.26458335"
       d=""
       id="path21"
       inkscape:connector-curvature="0" />
    <g
       id="g936"
       transform="translate(25.796875,-4.6302083)">
      <path
         style="fill:#d6d9da;stroke-width:0.26458335"
         d="m 238.64592,283.91333 c -0.0628,0.32542 -0.11256,-0.004 -0.11058,-0.73124 0.002,-0.72761 0.0534,-0.99386 0.11419,-0.59168 0.0608,0.40218 0.0592,0.9975 -0.004,1.32292 z m 2.11755,-1.32964 c -0.0633,0.32912 -0.11747,0.12215 -0.12041,-0.45994 -0.003,-0.58208 0.0488,-0.85136 0.11507,-0.5984 0.0662,0.25297 0.0686,0.72922 0.005,1.05834 z m -2.12857,-5.81775 c -0.0734,0.1819 -0.13345,0.0331 -0.13345,-0.33073 0,-0.3638 0.06,-0.51263 0.13345,-0.33073 0.0734,0.1819 0.0734,0.47956 0,0.66146 z"
         id="path946"
         inkscape:connector-curvature="0" />
      <path
         style="fill:#aeb0b5;stroke-width:0.26458335"
         d="m 247.65103,281.66073 c -0.0525,0.83675 -0.0955,0.15214 -0.0955,-1.52135 0,-1.67349 0.043,-2.3581 0.0955,-1.52136 0.0525,0.83675 0.0525,2.20597 0,3.04271 z m 3.96596,-0.52917 c -0.0571,0.54571 -0.10378,0.0992 -0.10378,-0.99218 0,-1.09141 0.0467,-1.53789 0.10378,-0.99219 0.0571,0.5457 0.0571,1.43867 0,1.98437 z"
         id="path944"
         inkscape:connector-curvature="0" />
      <path
         style="fill:#8d9199;stroke-width:0.26458335"
         d="m 244.14821,284.27608 c -1.45521,-6.9e-4 -2.01676,-0.0451 -1.2479,-0.0987 0.76886,-0.0536 1.95949,-0.0531 2.64583,10e-4 0.68635,0.0543 0.0573,0.0982 -1.39793,0.0975 z m 0,-8.20209 c -1.45521,-6.9e-4 -2.01676,-0.0451 -1.2479,-0.0987 0.76886,-0.0536 1.95949,-0.053 2.64583,0.001 0.68635,0.0543 0.0573,0.0982 -1.39793,0.0975 z"
         id="path942"
         inkscape:connector-curvature="0" />
      <path
         style="fill:#d72229;stroke-width:0.26458335"
         d="m 241.63467,280.40396 c -0.2808,0 -0.64206,-0.24574 -0.8028,-0.54608 -0.21693,-0.40534 -0.21098,-0.64401 0.0231,-0.92604 0.17343,-0.20898 0.5243,-0.37996 0.77971,-0.37996 0.25541,0 0.60628,0.17098 0.77971,0.37996 0.23407,0.28203 0.24002,0.5207 0.0231,0.92604 -0.16074,0.30034 -0.522,0.54608 -0.8028,0.54608 z"
         id="path940"
         inkscape:connector-curvature="0" />
      <path
         style="fill:#565b66;stroke-width:0.26458335"
         d="m 244.45163,286.15432 c -2.05865,0.034 -3.99815,-0.0467 -4.31,-0.17944 -0.31186,-0.13269 -0.75834,-0.51442 -0.99219,-0.84829 -0.24649,-0.35191 -0.42519,-1.1383 -0.42519,-1.87108 0,-0.91127 -0.14768,-1.41173 -0.52916,-1.79322 -0.40089,-0.40088 -0.52917,-0.88194 -0.52917,-1.98437 0,-1.10243 0.12828,-1.58349 0.52917,-1.98438 0.29104,-0.29104 0.52916,-0.82018 0.52916,-1.17587 0,-0.35568 0.28735,-0.98076 0.63855,-1.38906 0.63855,-0.74236 0.63855,-0.74236 4.73473,-0.74236 3.5741,0 4.16328,0.0607 4.62274,0.47655 0.28962,0.2621 0.5973,0.83016 0.68375,1.26237 0.15716,0.78582 0.15716,0.78582 1.63048,-3.8e-4 0.81032,-0.43242 1.6345,-0.72436 1.8315,-0.64876 0.19701,0.0756 0.42783,0.39711 0.51294,0.71446 0.0851,0.31736 0.15475,2.18436 0.15475,4.14889 0,1.96453 -0.0696,3.83153 -0.15475,4.14888 -0.0851,0.31736 -0.31593,0.63886 -0.51294,0.71446 -0.197,0.0756 -1.02118,-0.21634 -1.8315,-0.64875 -1.47332,-0.78621 -1.47332,-0.78621 -1.63048,-3.7e-4 -0.0865,0.4322 -0.39392,1.00027 -0.68328,1.26237 -0.44672,0.40463 -1.09093,0.48587 -4.26911,0.53836 z m -0.30342,-1.78161 c 1.93146,0 3.04557,-0.10869 3.25438,-0.3175 0.21581,-0.21582 0.3175,-1.46991 0.3175,-3.91583 0,-2.44593 -0.10169,-3.70002 -0.3175,-3.91584 -0.20881,-0.2088 -1.32292,-0.3175 -3.25438,-0.3175 -1.93146,0 -3.04557,0.1087 -3.25437,0.3175 -0.17463,0.17463 -0.3175,0.53182 -0.3175,0.79375 0,0.26194 -0.13946,0.47625 -0.3099,0.47625 -0.17044,0 -0.52763,0.19705 -0.79375,0.43789 -0.28044,0.25379 -0.48385,0.80085 -0.48385,1.30127 0,0.47487 0.0758,1.06085 0.16837,1.30218 0.0926,0.24133 0.4498,0.54578 0.79375,0.67655 0.52439,0.19937 0.62538,0.42254 0.62538,1.38202 0,0.62934 0.14287,1.28714 0.3175,1.46176 0.2088,0.20881 1.32291,0.3175 3.25437,0.3175 z m 7.2099,-2.14481 c 0.23937,0.0204 0.33073,-0.55657 0.33073,-2.08852 0,-1.16417 -0.1013,-2.11667 -0.2251,-2.11667 -0.12381,0 -0.60006,0.13071 -1.05834,0.29047 -0.80337,0.28005 -0.83323,0.3446 -0.83323,1.801 0,1.40178 0.0524,1.53125 0.7276,1.79806 0.40019,0.15813 0.87644,0.30018 1.05834,0.31566 z"
         id="path938"
         inkscape:connector-curvature="0" />
    </g>
  </g>
</svg>
