<?xml version="1.0" encoding="UTF-8" standalone="no"?>
<!-- Created with Inkscape (http://www.inkscape.org/) -->

<svg
   xmlns:dc="http://purl.org/dc/elements/1.1/"
   xmlns:cc="http://creativecommons.org/ns#"
   xmlns:rdf="http://www.w3.org/1999/02/22-rdf-syntax-ns#"
   xmlns:svg="http://www.w3.org/2000/svg"
   xmlns="http://www.w3.org/2000/svg"
   xmlns:sodipodi="http://sodipodi.sourceforge.net/DTD/sodipodi-0.dtd"
   xmlns:inkscape="http://www.inkscape.org/namespaces/inkscape"
   width="15.716302mm"
   height="14.35307mm"
   viewBox="0 0 15.716301 14.35307"
   version="1.1"
   id="svg8"
   inkscape:version="0.92.1 r15371"
   sodipodi:docname="tv.svg">
  <defs
     id="defs2" />
  <sodipodi:namedview
     id="base"
     pagecolor="#ffffff"
     bordercolor="#666666"
     borderopacity="1.0"
     inkscape:pageopacity="0.0"
     inkscape:pageshadow="2"
     inkscape:zoom="2.8"
     inkscape:cx="-106.28725"
     inkscape:cy="63.710253"
     inkscape:document-units="mm"
     inkscape:current-layer="layer1"
     showgrid="false"
     fit-margin-top="0"
     fit-margin-left="0"
     fit-margin-right="0"
     fit-margin-bottom="0"
     inkscape:window-width="1920"
     inkscape:window-height="1017"
     inkscape:window-x="-8"
     inkscape:window-y="-8"
     inkscape:window-maximized="1" />
  <metadata
     id="metadata5">
    <rdf:RDF>
      <cc:Work
         rdf:about="">
        <dc:format>image/svg+xml</dc:format>
        <dc:type
           rdf:resource="http://purl.org/dc/dcmitype/StillImage" />
        <dc:title></dc:title>
      </cc:Work>
    </rdf:RDF>
  </metadata>
  <g
     inkscape:label="Layer 1"
     inkscape:groupmode="layer"
     id="layer1"
     transform="translate(-258.01994,-269.85243)">
    <path
       style="fill:#000000;stroke-width:0.26458335"
       d=""
       id="path21"
       inkscape:connector-curvature="0" />
    <g
       id="g959"
       transform="translate(22.678571,-2.8348214)">
      <path
         style="fill:#f2f3f3;stroke-width:0.26458332"
         d="m 236.9889,279.90414 c -0.0568,0.54186 -0.10258,0.0327 -0.10162,-1.13147 9.6e-4,-1.16417 0.0475,-1.60751 0.10337,-0.9852 0.0559,0.62231 0.0551,1.57481 -0.002,2.11667 z m 12.43542,0 c -0.0568,0.54186 -0.10258,0.0327 -0.10162,-1.13147 9.5e-4,-1.16417 0.0475,-1.60751 0.10337,-0.9852 0.0559,0.62231 0.0551,1.57481 -0.002,2.11667 z"
         id="path969"
         inkscape:connector-curvature="0" />
      <path
         style="fill:#a4a6ac;stroke-width:0.26458332"
         d="m 243.94033,287.01459 c -1.23693,0 -1.74294,-0.0456 -1.12448,-0.10128 0.61846,-0.0557 1.6305,-0.0557 2.24896,0 0.61846,0.0557 0.11245,0.10128 -1.12448,0.10128 z"
         id="path967"
         inkscape:connector-curvature="0" />
      <path
         style="fill:#a2a4a9;stroke-width:0.26458332"
         d="m 243.14658,274.03732 c -2.11005,0 -2.97326,-0.0411 -1.91823,-0.0913 1.05503,-0.0502 2.78143,-0.0502 3.83646,0 1.05503,0.0502 0.19182,0.0913 -1.91823,0.0913 z"
         id="path965"
         inkscape:connector-curvature="0" />
      <path
         style="fill:#9b9ea3;stroke-width:0.26458332"
         d="m 240.63304,287.04032 c -0.58209,-0.003 -0.78906,-0.0571 -0.45994,-0.12041 0.32912,-0.0633 0.80537,-0.0609 1.05834,0.005 0.25296,0.0662 -0.0163,0.11801 -0.5984,0.11507 z m -2.05706,-2.74817 c -0.31689,0.43337 -0.39136,0.42444 -1.23245,-0.14787 -0.49234,-0.33501 -1.14424,-0.94526 -1.44866,-1.35612 -0.49041,-0.66185 -0.5535,-1.11425 -0.5535,-3.96875 0,-2.76377 0.0765,-3.35205 0.53853,-4.13842 0.29619,-0.50417 0.95104,-1.15902 1.45521,-1.45521 0.83273,-0.48921 1.36495,-0.53853 5.81147,-0.53853 4.44652,0 4.97874,0.0493 5.81147,0.53853 0.50417,0.29619 1.13817,0.91777 1.40888,1.38129 0.29986,0.51343 0.54994,1.60624 0.63996,2.7965 0.0813,1.07456 0.063,2.63242 -0.0407,3.4619 -0.13979,1.11886 -0.38763,1.73504 -0.96011,2.38706 -0.42442,0.48339 -1.14041,1.03162 -1.59108,1.2183 -0.68448,0.28352 -0.85828,0.27799 -1.0555,-0.0335 -0.12985,-0.20513 -0.23792,-0.50734 -0.24015,-0.67159 -0.002,-0.16424 0.34733,-0.44417 0.7768,-0.62206 0.42947,-0.1779 0.96525,-0.60487 1.19063,-0.94884 0.30615,-0.46724 0.40977,-1.34883 0.40977,-3.48624 0,-2.21667 -0.0971,-2.99956 -0.43145,-3.47684 -0.2373,-0.3388 -0.82879,-0.78201 -1.31442,-0.98492 -0.61311,-0.25617 -2.02027,-0.36892 -4.60413,-0.36892 -2.58386,0 -3.99102,0.11275 -4.60413,0.36892 -0.48563,0.20291 -1.07712,0.64612 -1.31442,0.98492 -0.3366,0.48056 -0.43016,1.25741 -0.42557,3.53367 0.005,2.36424 0.0926,3.02475 0.46302,3.48204 0.25143,0.31039 0.72503,0.70153 1.05245,0.86921 0.32743,0.16767 0.59532,0.39697 0.59532,0.50956 0,0.11259 -0.15177,0.41226 -0.33727,0.66595 z"
         id="path963"
         inkscape:connector-curvature="0" />
      <path
         style="fill:#565b66;stroke-width:0.26458332"
         d="m 243.16863,286.84246 c -1.75838,0 -3.19705,-0.0605 -3.19705,-0.1344 0,-0.0739 0.67485,-1.20501 1.49967,-2.51354 0.82482,-1.30853 1.57075,-2.37914 1.65763,-2.37914 0.0869,0 0.811,1.03041 1.60918,2.2898 0.79818,1.25939 1.49092,2.39048 1.53942,2.51354 0.0485,0.12306 -1.35047,0.22374 -3.10885,0.22374 z"
         id="path961"
         inkscape:connector-curvature="0" />
    </g>
  </g>
</svg>
