<svg xmlns="http://www.w3.org/2000/svg" width="55.609" height="55.527" viewBox="0 0 14.713239 14.691598"><path d="M2.648 14.481c-.347-.22-.292-2.107.124-4.296.106-.557-.136-1.003-1.212-2.232C.147 6.338-.294 5.347.187 4.866c.159-.159 1.209-.485 2.334-.724l2.045-.436.911-1.66c1.536-2.8 2.511-2.737 4.024.257l.745 1.475 1.849.33c2.033.364 2.849.954 2.563 1.856-.095.299-.708 1.201-1.363 2.005l-1.19 1.46.184 2.507c.23 3.127.115 3.207-2.85 1.983l-2.12-.875-1.697.837c-1.76.867-2.36.989-2.974.6zm8.034-3.73l-.186-1.85 1.105-1.319c.607-.725 1.039-1.424.959-1.554-.08-.129-.836-.37-1.68-.537-1.51-.297-1.546-.326-2.407-1.89-.48-.875-.972-1.529-1.093-1.454-.12.074-.58.775-1.021 1.556-.758 1.343-.886 1.44-2.322 1.786-.835.2-1.563.5-1.616.666-.054.165.37.842.944 1.504 1.031 1.191 1.04 1.22.902 2.94-.132 1.635-.107 1.737.418 1.737.307 0 1.076-.25 1.708-.558l1.15-.559 1.305.679c1.993 1.036 2.05 1 1.834-1.147z"/></svg>