<svg xmlns="http://www.w3.org/2000/svg" width="58.328" height="64.056" viewBox="0 0 15.432728 16.94822"><path d="M10.679 13.268c-.073 0 .147-.298.489-.661.342-.364.68-.662.754-.662.072 0-.148.298-.49.662-.341.363-.68.661-.753.661z" fill="#eaebec"/><path d="M7.728 10.798c-1.091 0-1.537-.047-.992-.104a11.515 11.515 0 0 1 1.985 0c.545.057.099.104-.993.104z" fill="#d1d2d4"/><path d="M6.935 7.11c-.655 0-.923-.051-.596-.114a3.768 3.768 0 0 1 1.191 0c.327.063.06.115-.595.115z" fill="#a6a9ad"/><path d="M13.73 16.941c-.318-.017-2.234-.312-4.257-.655-2.024-.343-4.068-.751-4.542-.908-.474-.156-1.41-.766-2.08-1.355-.669-.59-1.503-1.566-1.854-2.17-.35-.604-.749-1.719-.884-2.478-.136-.759-.151-1.978-.035-2.713.116-.734.542-1.943.946-2.686.405-.743 1.226-1.753 1.825-2.244C3.448 1.242 4.463.651 5.106.42 5.748.189 6.928 0 7.728 0c.8 0 1.981.189 2.623.42.642.23 1.678.838 2.302 1.35.707.579 1.445 1.56 1.96 2.605.691 1.404.825 1.981.82 3.544-.003 1.093-.18 2.286-.428 2.88-.232.558-.776 1.457-1.209 1.998-.787.983-.787.983-.139 2.58.649 1.595.649 1.595.072 1.564zm-2.628-1.838c.182.01.33-.037.33-.103s-.135-.418-.301-.782c-.267-.585-.205-.774.527-1.607a11.98 11.98 0 0 0 1.387-2.038c.452-.885.54-1.454.462-2.993-.077-1.53-.238-2.114-.823-2.999-.4-.604-1.223-1.426-1.83-1.828-.962-.637-1.36-.73-3.126-.73-1.765 0-2.163.093-3.126.73-.606.402-1.43 1.224-1.83 1.828-.587.89-.745 1.467-.824 3.03-.08 1.593.007 2.149.495 3.157.34.7 1.049 1.555 1.657 1.995.585.424 1.552.892 2.148 1.04.596.147 1.857.496 2.803.775.946.28 1.869.515 2.05.525z" fill="#9a9da2"/><path d="M7.067 4.99c-.728-.002-.994-.053-.592-.114.402-.06.998-.059 1.323.004.326.063-.004.113-.731.11z" fill="#82868e"/><path d="M7.64 10.601c-1.042-.011-2.045-.08-2.227-.154-.182-.073-.33-.417-.33-.764 0-.352.225-.75.511-.904.282-.15 1.242-.273 2.134-.273.893 0 1.853.123 2.134.273.284.152.512.552.512.898 0 .343-.188.696-.418.785-.23.088-1.272.15-2.315.14zm-.746-3.683c-1.117 0-1.605-.109-1.71-.381-.08-.21-.105-.597-.055-.86.075-.395.4-.492 1.853-.556 1.59-.07 1.779-.024 1.937.475.097.306.033.726-.143.938-.213.256-.838.384-1.882.384z" fill="#565b66"/></svg>