<svg xmlns="http://www.w3.org/2000/svg" width="59.346" height="58.72" viewBox="0 0 15.702046 15.536318"><path d="M1.736 11.051c-.06.398-.109.008-.107-.865 0-.873.05-1.198.11-.722.058.475.057 1.19-.003 1.587zm12.435 0c-.06.398-.108.008-.107-.865.001-.873.051-1.198.11-.722.059.475.058 1.19-.003 1.587zm-7.935-7.28c-.059.472-.107.085-.107-.86 0-.946.048-1.333.107-.86a8.42 8.42 0 0 1 0 1.72z" fill="#f8f8f9"/><path d="M7.897 13.916c-2.256 0-3.178-.04-2.05-.09 1.127-.05 2.973-.05 4.1 0 1.128.05.205.09-2.05.09z" fill="#f7f8f8"/><path d="M7.897 6.244c-2.256 0-3.178-.041-2.05-.09 1.127-.05 2.973-.05 4.1 0 1.128.049.205.09-2.05.09zM9.22 2.302c-.8 0-1.128-.05-.728-.11.4-.06 1.055-.06 1.455 0 .4.06.073.11-.727.11z" fill="#e3e4e5"/><path d="M4.854 4.68c-.873.002-1.262-.046-.864-.107.397-.06 1.111-.061 1.587-.003.476.06.15.109-.723.11zm5.292-.011c-1.31-.001-1.812-.047-1.117-.101a17.234 17.234 0 0 1 2.382 0c.614.056.044.101-1.265.1zM8.294.719C7.566.715 7.3.664 7.702.603c.402-.06.998-.06 1.323.004.325.063-.004.112-.731.11z" fill="#bcbec1"/><path d="M8.294 15.53c-2.62.03-5.13-.058-5.58-.194-.45-.136-1.127-.534-1.504-.883-.377-.35-.826-1.155-.999-1.79-.186-.685-.259-2.041-.18-3.338.086-1.397.293-2.427.575-2.857.242-.37.82-.904 1.286-1.188.617-.376 1.328-.516 2.631-.517 1.786 0 1.786 0 1.786-1.566 0-.862.073-1.755.16-1.985.122-.316.543-.418 1.72-.418 1.21 0 1.56-.09 1.56-.397 0-.22.235-.397.524-.397.34 0 .583.235.691.665.096.381.028.833-.16 1.058-.207.25-.797.394-1.617.394-1.29 0-1.29 0-1.29 1.323 0 1.322 0 1.322 2.58 1.323 2.09.001 2.74.1 3.425.517.465.284 1.06.843 1.323 1.244.38.58.477 1.27.477 3.386 0 1.654-.137 2.982-.362 3.515-.199.472-.794 1.127-1.323 1.455-.895.557-1.288.602-5.723.65zm-.397-1.507c5.052 0 5.052 0 5.701-.7.597-.644.649-.908.649-3.284 0-2.56-.007-2.59-.814-3.269-.81-.68-.842-.685-5.536-.685S3.17 6.09 2.36 6.77c-.807.68-.814.709-.814 3.269 0 2.376.052 2.64.649 3.284.648.7.648.7 5.7.7z" fill="#9b9ea3"/><path d="M5.552 11.751c-.125.078-.303.065-.396-.028-.093-.093-.17-.38-.17-.636 0-.283-.234-.5-.595-.551-.327-.047-.595-.204-.595-.35 0-.145.26-.301.579-.347.335-.047.614-.302.661-.605.046-.288.202-.524.347-.524.146 0 .302.236.347.524.048.303.327.558.662.605.318.046.579.202.579.347 0 .146-.268.303-.596.35-.375.053-.595.267-.595.58 0 .272-.102.558-.228.635zm4.938-.693c-.216.042-.544-.105-.729-.328-.185-.222-.266-.587-.18-.81.086-.224.346-.48.58-.57.233-.09.619.034.86.276.338.337.372.544.15.896-.158.252-.465.493-.681.536z" fill="#565b66"/></svg>