<svg xmlns="http://www.w3.org/2000/svg" width="59.826" height="56.713" viewBox="0 0 15.828881 15.005333"><path d="M7.02 1.357c-.063.329-.117.122-.12-.46-.003-.582.048-.852.115-.599.066.253.068.73.005 1.059z" fill="#ebeced"/><path d="M15.489 3.146c-.041 0-.726-.685-1.521-1.522C12.52.103 12.52.103 14.043 1.55c.837.795 1.521 1.48 1.521 1.521a.075.075 0 0 1-.075.076z" fill="#e2e3e4"/><path d="M13.901 11.55c-.06.398-.108.009-.107-.864.001-.873.05-1.198.11-.723.059.476.058 1.19-.003 1.588z" fill="#d9dbdc"/><path d="M2.003 9.972c-.049 1.266-.088.159-.088-2.46 0-2.62.04-3.656.088-2.302a78.343 78.343 0 0 1 0 4.762z" fill="#d5d6d9"/><path d="M7.891 13.09c-2.837 0-3.998-.04-2.58-.087a93.222 93.222 0 0 1 5.16 0c1.419.047.258.086-2.58.086z" fill="#d0d1d4"/><path d="M4.849 1.997c-1.165 0-1.674-.045-1.132-.102a13.288 13.288 0 0 1 2.117-.002c.622.056.179.102-.985.103z" fill="#caccce"/><path d="M14.903 9.164c-.582-.003-.79-.057-.46-.12.329-.063.805-.061 1.058.005s-.016.118-.598.115z" fill="#c1c3c6"/><path d="M4.32.139C2.863.138 2.302.093 3.07.039c.77-.053 1.96-.052 2.646.002.687.054.058.098-1.398.097z" fill="#b6b9bb"/><path d="M8.215 14.989c-4.702.052-6.442-.016-6.933-.27-.361-.186-.81-.634-.996-.995-.253-.49-.322-2.149-.27-6.516C.08 1.873.131 1.298.59.792c.453-.5.794-.557 3.373-.557 2.87 0 2.87 0 2.87.794s0 .794-2.002.794c-1.1 0-2.232.123-2.513.274-.48.256-.512.602-.512 5.37 0 3.612.092 5.19.317 5.415.227.227 1.882.318 5.768.318 3.887 0 5.542-.091 5.768-.318.18-.18.318-1.04.318-1.984 0-1.667 0-1.667.953-1.667s.953 0 .86 2.242c-.08 1.907-.183 2.331-.696 2.844-.588.589-.745.604-6.879.672z" fill="#b2b5b8"/><path d="M12.375 2.97c-.065.058-.406-.265-.757-.72-.639-.824-.639-.824.118-.105.417.396.704.767.64.825z" fill="#a3a5ab"/><path d="M15.49 3.41c-.041 0-.785-.744-1.654-1.653-1.58-1.654-1.58-1.654.074-.075.91.869 1.654 1.613 1.654 1.654 0 .04-.033.074-.074.074z" fill="#646973"/><path d="M12.958 7.114c-.072 0 .148-.297.49-.661.341-.364.68-.662.753-.662.073 0-.147.298-.489.662-.342.364-.68.661-.754.661z" fill="#595e68"/><path d="M5.194 9.82c-.19.07-.494.075-.676.011-.182-.063-.331-.439-.331-.835 0-.396.337-1.251.75-1.901.411-.65 1.156-1.526 1.653-1.946.497-.42 1.42-.993 2.049-1.273.63-.28 1.796-.575 2.594-.658 1.45-.15 1.45-.15.617-1.009-.482-.497-.794-1.065-.74-1.347a.798.798 0 0 1 .588-.583c.325-.063 1.066.473 2.18 1.576.927.92 1.684 1.854 1.68 2.077-.003.222-.786 1.215-1.74 2.205-.954.991-1.866 1.758-2.026 1.704-.16-.053-.415-.294-.567-.534-.216-.343-.12-.602.444-1.19.396-.413.72-.834.72-.935 0-.102-.373-.184-.83-.184-.455 0-1.29.138-1.853.307-.564.169-1.486.701-2.049 1.183-.563.482-1.27 1.4-1.57 2.04-.302.64-.703 1.222-.893 1.292z" fill="#565b66"/></svg>