<svg xmlns="http://www.w3.org/2000/svg" width="59.973" height="45.263" viewBox="0 0 15.867769 11.975846"><path d="M.98 9.727c-.063.326-.113-.004-.11-.731.001-.728.053-.994.114-.592.06.402.059.998-.004 1.323zm2.118-1.33c-.064.33-.118.123-.12-.46-.004-.582.048-.85.114-.598.066.253.069.73.005 1.058zM.969 2.58c-.073.182-.133.033-.133-.331s.06-.513.133-.33c.073.181.073.479 0 .66z" fill="#d6d9da"/><path d="M9.985 7.474c-.052.837-.095.153-.095-1.52 0-1.674.043-2.359.095-1.522a29.41 29.41 0 0 1 0 3.042zm3.966-.529c-.057.546-.104.1-.104-.992 0-1.091.047-1.538.104-.992a11.53 11.53 0 0 1 0 1.984z" fill="#aeb0b5"/><path d="M6.482 10.09c-1.455 0-2.016-.045-1.248-.099.77-.053 1.96-.053 2.646.001.687.054.058.098-1.398.098zm0-8.202c-1.455 0-2.016-.045-1.248-.099a21.61 21.61 0 0 1 2.646.001c.687.054.058.098-1.398.098z" fill="#8d9199"/><path d="M3.969 6.218c-.281 0-.642-.246-.803-.546-.217-.406-.211-.644.023-.926.173-.21.524-.38.78-.38.255 0 .606.17.78.38.234.282.24.52.023.926-.161.3-.522.546-.803.546z" fill="#d72229"/><path d="M6.786 11.968c-2.059.034-3.998-.047-4.31-.18-.312-.132-.759-.514-.992-.848-.247-.352-.426-1.138-.426-1.87 0-.912-.147-1.412-.529-1.794C.13 6.876 0 6.394 0 5.292c0-1.103.128-1.584.53-1.985.29-.29.528-.82.528-1.176 0-.355.288-.98.639-1.389C2.335 0 2.335 0 6.432 0c3.574 0 4.163.06 4.622.477.29.262.598.83.684 1.262.157.786.157.786 1.63 0 .81-.433 1.635-.725 1.832-.65.197.076.428.398.513.715.085.318.155 2.185.155 4.15 0 1.964-.07 3.83-.155 4.148-.085.317-.316.639-.513.714-.197.076-1.021-.216-1.831-.648-1.474-.786-1.474-.786-1.63 0-.087.432-.395 1-.684 1.262-.447.404-1.091.486-4.27.538zm-.304-1.782c1.932 0 3.046-.108 3.255-.317.215-.216.317-1.47.317-3.916 0-2.446-.102-3.7-.317-3.916-.21-.209-1.323-.317-3.255-.317-1.931 0-3.045.108-3.254.317-.175.175-.318.532-.318.794s-.139.476-.31.476c-.17 0-.527.197-.793.438-.28.254-.484.801-.484 1.301 0 .475.076 1.061.168 1.303.093.241.45.545.794.676.524.2.625.423.625 1.382 0 .63.143 1.287.318 1.462.209.209 1.323.317 3.254.317zm7.21-2.144c.24.02.33-.557.33-2.089 0-1.164-.1-2.117-.224-2.117s-.6.131-1.059.29c-.803.281-.833.346-.833 1.802 0 1.402.053 1.531.728 1.798.4.158.876.3 1.058.316z" fill="#565b66"/></svg>