<svg xmlns="http://www.w3.org/2000/svg" width="59.253" height="59.286" viewBox="0 0 15.677344 15.686087"><path d="M2.937 15.398c-.418-.306-.436-.555-.183-2.573.154-1.228.28-2.373.28-2.543 0-.17-.519-.887-1.152-1.594C1.248 7.98.535 7.023.296 6.559c-.388-.754-.391-.885-.03-1.245.22-.222 1.355-.608 2.52-.858l2.12-.455.83-1.557C6.191 1.587 6.86.654 7.221.369c.576-.453.726-.471 1.211-.152.305.2 1 1.136 1.543 2.079.973 1.685 1.015 1.719 2.514 2.036 3.83.812 4.046 1.421 1.515 4.27L12.83 9.928 13 12.7l.17 2.772h-.88c-.483 0-1.67-.364-2.636-.81l-1.757-.81-2.143.942c-2.479 1.09-2.226 1.036-2.816.604z" fill="#d8232a"/></svg>