<svg xmlns="http://www.w3.org/2000/svg" width="59.4" height="54.248" viewBox="0 0 15.716301 14.35307"><path d="M1.648 7.217c-.057.542-.103.033-.102-1.132 0-1.164.047-1.607.103-.985.056.623.055 1.575-.002 2.117zm12.435 0c-.057.542-.103.033-.102-1.132.001-1.164.048-1.607.104-.985.056.623.055 1.575-.002 2.117z" fill="#f2f3f3"/><path d="M8.599 14.327c-1.237 0-1.743-.045-1.125-.1a14.824 14.824 0 0 1 2.25 0c.618.055.112.1-1.125.1z" fill="#a4a6ac"/><path d="M7.805 1.35c-2.11 0-2.973-.041-1.918-.091 1.055-.05 2.781-.05 3.836 0 1.055.05.192.091-1.918.091z" fill="#a2a4a9"/><path d="M5.292 14.353c-.582-.003-.79-.057-.46-.12.329-.064.805-.061 1.058.005s-.016.118-.598.115zm-2.057-2.748c-.317.433-.392.424-1.233-.148-.492-.335-1.144-.945-1.448-1.356C.064 9.439 0 8.987 0 6.132 0 3.368.077 2.78.539 1.994c.296-.504.95-1.16 1.455-1.455C2.826.049 3.359 0 7.805 0c4.447 0 4.979.05 5.812.539.504.296 1.138.917 1.409 1.38.3.514.55 1.607.64 2.797.08 1.075.063 2.633-.041 3.462-.14 1.12-.388 1.735-.96 2.387-.425.484-1.14 1.032-1.591 1.219-.685.283-.859.278-1.056-.034-.13-.205-.238-.507-.24-.672-.002-.164.347-.444.777-.622.43-.177.965-.604 1.19-.948.307-.468.41-1.35.41-3.487 0-2.216-.097-3-.431-3.476-.238-.34-.83-.783-1.315-.985-.613-.257-2.02-.37-4.604-.37s-3.99.113-4.604.37c-.486.202-1.077.646-1.314.985-.337.48-.43 1.257-.426 3.533.005 2.364.093 3.025.463 3.482.252.31.725.702 1.053.87.327.167.595.396.595.509 0 .113-.152.412-.337.666z" fill="#9b9ea3"/><path d="M7.827 14.155c-1.758 0-3.197-.06-3.197-.134 0-.074.675-1.205 1.5-2.514.825-1.308 1.57-2.379 1.658-2.379.086 0 .81 1.03 1.609 2.29.798 1.26 1.49 2.39 1.54 2.513.048.124-1.351.224-3.11.224z" fill="#565b66"/></svg>