<svg xmlns="http://www.w3.org/2000/svg" width="58.384" height="58.154" viewBox="0 0 15.447305 15.386494"><path d="M5.812 9.123c-.053.764-.097.139-.097-1.389s.044-2.153.097-1.39c.054.765.054 2.015 0 2.779z" fill="#a5a8ac"/><path d="M7.62 15.386c-.883-.011-2.138-.209-2.79-.439-.71-.25-1.724-.959-2.539-1.773-.947-.948-1.496-1.78-1.823-2.764C.21 9.635 0 8.43 0 7.734c0-.697.21-1.901.468-2.676.327-.984.876-1.817 1.825-2.765C3.24 1.344 4.073.795 5.058.468 5.833.21 7.037 0 7.734 0c.697 0 1.9.21 2.676.468.984.327 1.816.876 2.765 1.825.943.943 1.498 1.782 1.82 2.75.254.766.458 1.99.452 2.722-.006.731-.214 1.942-.462 2.691-.31.933-.878 1.788-1.804 2.713-.887.887-1.797 1.503-2.652 1.794-.716.244-2.025.434-2.908.423zm-.049-1.594c.565.015 1.518-.118 2.117-.296.654-.194 1.567-.801 2.287-1.521.72-.72 1.327-1.633 1.521-2.287.178-.6.323-1.478.323-1.954s-.145-1.355-.323-1.954c-.194-.654-.801-1.567-1.521-2.287-.72-.72-1.633-1.327-2.287-1.521-.6-.178-1.478-.323-1.954-.323s-1.355.145-1.954.323c-.654.194-1.567.801-2.287 1.521-.72.72-1.327 1.633-1.521 2.287-.178.6-.323 1.478-.323 1.954s.145 1.355.323 1.954c.194.653.803 1.57 1.521 2.29.66.66 1.615 1.332 2.124 1.494a8.53 8.53 0 0 0 1.954.32z" fill="#8f9195"/><path d="M6.213 10.488c-.256.145-.331-.48-.331-2.769 0-2.956 0-2.956.595-2.578.328.209 1.34.826 2.25 1.373.909.547 1.653 1.092 1.653 1.212 0 .12-.863.748-1.918 1.396a166.713 166.713 0 0 1-2.25 1.366z" fill="#565b66"/></svg>