<?xml version="1.0" encoding="UTF-8" standalone="no"?>
<!-- Created with Inkscape (http://www.inkscape.org/) -->

<svg
   xmlns:dc="http://purl.org/dc/elements/1.1/"
   xmlns:cc="http://creativecommons.org/ns#"
   xmlns:rdf="http://www.w3.org/1999/02/22-rdf-syntax-ns#"
   xmlns:svg="http://www.w3.org/2000/svg"
   xmlns="http://www.w3.org/2000/svg"
   xmlns:sodipodi="http://sodipodi.sourceforge.net/DTD/sodipodi-0.dtd"
   xmlns:inkscape="http://www.inkscape.org/namespaces/inkscape"
   width="14.713239mm"
   height="14.691598mm"
   viewBox="0 0 14.713239 14.691598"
   version="1.1"
   id="svg8"
   inkscape:version="0.92.1 r15371"
   sodipodi:docname="10.svg">
  <defs
     id="defs2" />
  <sodipodi:namedview
     id="base"
     pagecolor="#ffffff"
     bordercolor="#666666"
     borderopacity="1.0"
     inkscape:pageopacity="0.0"
     inkscape:pageshadow="2"
     inkscape:zoom="1.4"
     inkscape:cx="18.869047"
     inkscape:cy="86.11021"
     inkscape:document-units="mm"
     inkscape:current-layer="layer1"
     showgrid="false"
     fit-margin-top="0"
     fit-margin-left="0"
     fit-margin-right="0"
     fit-margin-bottom="0"
     inkscape:window-width="1920"
     inkscape:window-height="1017"
     inkscape:window-x="-8"
     inkscape:window-y="-8"
     inkscape:window-maximized="1" />
  <metadata
     id="metadata5">
    <rdf:RDF>
      <cc:Work
         rdf:about="">
        <dc:format>image/svg+xml</dc:format>
        <dc:type
           rdf:resource="http://purl.org/dc/dcmitype/StillImage" />
        <dc:title></dc:title>
      </cc:Work>
    </rdf:RDF>
  </metadata>
  <g
     inkscape:label="Layer 1"
     inkscape:groupmode="layer"
     id="layer1"
     transform="translate(-196.94777,-215.89079)">
    <path
       style="fill:#000;stroke-width:0.26458335"
       d="m 199.59623,230.37201 c -0.34711,-0.21991 -0.29268,-2.10723 0.12388,-4.29608 0.10599,-0.55695 -0.13628,-1.00322 -1.21196,-2.23246 -1.41318,-1.61491 -1.85401,-2.606 -1.37306,-3.08695 0.15852,-0.15852 1.20863,-0.48437 2.3336,-0.7241 l 2.04538,-0.43589 0.91078,-1.65978 c 1.53624,-2.7996 2.511,-2.73744 4.02372,0.25663 l 0.74549,1.47553 1.84843,0.33033 c 2.03305,0.36332 2.84911,0.95399 2.5631,1.85515 -0.095,0.29934 -0.70818,1.20156 -1.36261,2.00494 l -1.18988,1.4607 0.18399,2.50648 c 0.22959,3.12768 0.11516,3.20728 -2.85052,1.98284 l -2.1191,-0.87491 -1.69739,0.83702 c -1.75937,0.86758 -2.3607,0.98902 -2.97385,0.60055 z m 8.0336,-3.72992 -0.18576,-1.84972 1.10439,-1.31908 c 0.60742,-0.72549 1.03901,-1.42487 0.9591,-1.55417 -0.0799,-0.1293 -0.83545,-0.37087 -1.67897,-0.53683 -1.50999,-0.29707 -1.54716,-0.32626 -2.40746,-1.89116 -0.48059,-0.87419 -0.9726,-1.52838 -1.09336,-1.45375 -0.12075,0.0746 -0.58036,0.77502 -1.02136,1.55642 -0.75776,1.34267 -0.88527,1.44078 -2.32125,1.78593 -0.83569,0.20086 -1.56322,0.50053 -1.61674,0.66593 -0.0535,0.16539 0.37129,0.84213 0.94402,1.50386 1.03141,1.19171 1.03999,1.21966 0.90186,2.94043 -0.13126,1.63518 -0.10664,1.73728 0.41886,1.73728 0.30707,0 1.07571,-0.25137 1.70808,-0.5586 l 1.14977,-0.5586 1.3047,0.67857 c 1.99279,1.03644 2.04976,1.00083 1.83412,-1.14651 z"
       id="path47"
       inkscape:connector-curvature="0" />
  </g>
</svg>
