<?xml version="1.0" encoding="UTF-8" standalone="no"?>
<!-- Created with Inkscape (http://www.inkscape.org/) -->

<svg
   xmlns:dc="http://purl.org/dc/elements/1.1/"
   xmlns:cc="http://creativecommons.org/ns#"
   xmlns:rdf="http://www.w3.org/1999/02/22-rdf-syntax-ns#"
   xmlns:svg="http://www.w3.org/2000/svg"
   xmlns="http://www.w3.org/2000/svg"
   xmlns:sodipodi="http://sodipodi.sourceforge.net/DTD/sodipodi-0.dtd"
   xmlns:inkscape="http://www.inkscape.org/namespaces/inkscape"
   width="15.702046mm"
   height="15.536319mm"
   viewBox="0 0 15.702046 15.536318"
   version="1.1"
   id="svg8"
   inkscape:version="0.92.1 r15371"
   sodipodi:docname="game.svg">
  <defs
     id="defs2" />
  <sodipodi:namedview
     id="base"
     pagecolor="#ffffff"
     bordercolor="#666666"
     borderopacity="1.0"
     inkscape:pageopacity="0.0"
     inkscape:pageshadow="2"
     inkscape:zoom="2.8"
     inkscape:cx="-1.2506803"
     inkscape:cy="60.251879"
     inkscape:document-units="mm"
     inkscape:current-layer="layer1"
     showgrid="false"
     fit-margin-top="0"
     fit-margin-left="0"
     fit-margin-right="0"
     fit-margin-bottom="0"
     inkscape:window-width="1920"
     inkscape:window-height="1017"
     inkscape:window-x="-8"
     inkscape:window-y="-8"
     inkscape:window-maximized="1" />
  <metadata
     id="metadata5">
    <rdf:RDF>
      <cc:Work
         rdf:about="">
        <dc:format>image/svg+xml</dc:format>
        <dc:type
           rdf:resource="http://purl.org/dc/dcmitype/StillImage" />
        <dc:title></dc:title>
      </cc:Work>
    </rdf:RDF>
  </metadata>
  <g
     inkscape:label="Layer 1"
     inkscape:groupmode="layer"
     id="layer1"
     transform="translate(-230.22901,-267.75415)">
    <path
       style="fill:#000000;stroke-width:0.26458335"
       d=""
       id="path21"
       inkscape:connector-curvature="0" />
    <g
       id="g847"
       transform="translate(24.75744,-6.1421131)">
      <path
         style="fill:#f8f8f9;stroke-width:0.26458332"
         d="m 207.20746,284.94736 c -0.0604,0.39757 -0.10855,0.008 -0.10706,-0.86464 0.001,-0.87312 0.0509,-1.19841 0.10976,-0.72286 0.0589,0.47554 0.0577,1.18992 -0.003,1.5875 z m 12.43542,0 c -0.0604,0.39757 -0.10855,0.008 -0.10707,-0.86464 0.001,-0.87312 0.0509,-1.19841 0.10977,-0.72286 0.0589,0.47554 0.0577,1.18992 -0.003,1.5875 z m -7.93515,-7.28078 c -0.0587,0.47294 -0.10672,0.086 -0.10672,-0.8599 0,-0.94589 0.048,-1.33284 0.10672,-0.8599 0.0587,0.47295 0.0587,1.24685 0,1.7198 z"
         id="path859"
         inkscape:connector-curvature="0" />
      <path
         style="fill:#f7f8f8;stroke-width:0.26458332"
         d="m 213.36841,287.81269 c -2.25557,0 -3.17831,-0.0406 -2.05052,-0.0902 1.12779,-0.0496 2.97325,-0.0496 4.10104,0 1.12779,0.0496 0.20505,0.0902 -2.05052,0.0902 z"
         id="path857"
         inkscape:connector-curvature="0" />
      <path
         style="fill:#e3e4e5;stroke-width:0.26458332"
         d="m 213.36841,280.13977 c -2.25557,0 -3.17831,-0.0406 -2.05052,-0.0902 1.12779,-0.0496 2.97325,-0.0496 4.10104,0 1.12779,0.0496 0.20505,0.0902 -2.05052,0.0902 z m 1.32292,-3.94154 c -0.80037,0 -1.12779,-0.0496 -0.72761,-0.11023 0.40018,-0.0606 1.05503,-0.0606 1.45521,0 0.40018,0.0606 0.0728,0.11023 -0.7276,0.11023 z"
         id="path855"
         inkscape:connector-curvature="0" />
      <path
         style="fill:#bcbec1;stroke-width:0.26458332"
         d="m 210.3257,278.57678 c -0.87312,0.001 -1.26221,-0.0467 -0.86463,-0.10707 0.39757,-0.0604 1.11195,-0.0616 1.5875,-0.003 0.47555,0.0589 0.15026,0.10828 -0.72287,0.10977 z m 5.29167,-0.0119 c -1.30969,-8e-4 -1.81211,-0.0462 -1.1165,-0.10089 0.69562,-0.0547 1.76718,-0.054 2.38125,10e-4 0.61408,0.0555 0.0449,0.10024 -1.26475,0.0994 z m -1.85209,-3.95051 c -0.7276,-0.002 -0.99385,-0.0534 -0.59167,-0.11419 0.40218,-0.0608 0.9975,-0.0592 1.32292,0.004 0.32542,0.0628 -0.004,0.11257 -0.73125,0.11058 z"
         id="path853"
         inkscape:connector-curvature="0" />
      <path
         style="fill:#9b9ea3;stroke-width:0.26458332"
         d="m 213.76528,289.42704 c -2.61937,0.029 -5.13041,-0.0588 -5.58009,-0.19504 -0.44968,-0.13623 -1.12613,-0.53364 -1.50323,-0.88312 -0.3771,-0.34948 -0.82666,-1.15468 -0.99902,-1.78933 -0.18606,-0.68511 -0.25902,-2.04153 -0.17957,-3.33867 0.0856,-1.3971 0.29258,-2.42707 0.57422,-2.8569 0.24222,-0.36968 0.82089,-0.90414 1.28593,-1.18769 0.61698,-0.3762 1.32824,-0.51582 2.63145,-0.51654 1.78594,-9.9e-4 1.78594,-9.9e-4 1.78594,-1.56685 0,-0.86122 0.0723,-1.75419 0.1606,-1.98437 0.1213,-0.31612 0.54209,-0.41852 1.71979,-0.41852 1.20956,0 1.55919,-0.089 1.55919,-0.39687 0,-0.21922 0.23463,-0.39688 0.52413,-0.39688 0.33913,0 0.58303,0.23468 0.691,0.6649 0.0957,0.38135 0.0276,0.83268 -0.15964,1.05833 -0.20731,0.24979 -0.79771,0.39344 -1.61705,0.39344 -1.29052,0 -1.29052,0 -1.29052,1.32292 0,1.32291 0,1.32291 2.57969,1.3239 2.09011,8e-4 2.74015,0.0988 3.4252,0.51654 0.46504,0.28355 1.06035,0.84336 1.32292,1.24404 0.3801,0.58002 0.4774,1.2701 0.4774,3.38606 0,1.65359 -0.13671,2.98155 -0.36186,3.51514 -0.19902,0.47165 -0.79434,1.1265 -1.32292,1.45521 -0.89492,0.55652 -1.28877,0.60127 -5.72356,0.6503 z m -0.39687,-1.50786 c 5.05235,0 5.05235,0 5.70118,-0.70009 0.59661,-0.64377 0.64882,-0.90798 0.64882,-3.28378 0,-2.56026 -0.007,-2.58988 -0.81405,-3.26865 -0.80923,-0.68092 -0.84204,-0.68498 -5.53595,-0.68498 -4.69391,0 -4.72672,0.004 -5.53595,0.68498 -0.80667,0.67877 -0.81405,0.70839 -0.81405,3.26865 0,2.3758 0.0522,2.64001 0.64882,3.28378 0.64883,0.70009 0.64883,0.70009 5.70118,0.70009 z"
         id="path851"
         inkscape:connector-curvature="0" />
      <path
         style="fill:#565b66;stroke-width:0.26458332"
         d="m 211.02406,285.64741 c -0.12522,0.0774 -0.30381,0.0646 -0.39687,-0.0285 -0.0931,-0.0931 -0.1692,-0.37919 -0.1692,-0.63586 0,-0.28251 -0.23492,-0.50003 -0.59531,-0.55122 -0.32742,-0.0465 -0.59531,-0.20361 -0.59531,-0.34913 0,-0.14552 0.26057,-0.30167 0.57904,-0.347 0.33518,-0.0477 0.61375,-0.30284 0.66146,-0.60579 0.0453,-0.28786 0.20148,-0.52338 0.347,-0.52338 0.14552,0 0.30167,0.23552 0.347,0.52338 0.0477,0.30295 0.32628,0.55809 0.66146,0.60579 0.31847,0.0453 0.57904,0.20148 0.57904,0.347 0,0.14552 -0.26789,0.30263 -0.59531,0.34913 -0.37518,0.0533 -0.59532,0.26765 -0.59532,0.5797 0,0.27233 -0.10245,0.55847 -0.22768,0.63586 z m 4.93749,-0.69344 c -0.21606,0.0426 -0.54404,-0.1047 -0.72884,-0.32736 -0.1848,-0.22267 -0.26585,-0.58767 -0.18011,-0.8111 0.0857,-0.22344 0.34642,-0.47936 0.57928,-0.56872 0.23365,-0.0897 0.6197,0.0338 0.86142,0.27555 0.33695,0.33696 0.37146,0.5437 0.14956,0.89608 -0.15865,0.25193 -0.46524,0.49292 -0.68131,0.53555 z"
         id="path849"
         inkscape:connector-curvature="0" />
    </g>
  </g>
</svg>
