<?xml version="1.0" encoding="UTF-8" standalone="no"?>
<!-- Created with Inkscape (http://www.inkscape.org/) -->

<svg
   xmlns:dc="http://purl.org/dc/elements/1.1/"
   xmlns:cc="http://creativecommons.org/ns#"
   xmlns:rdf="http://www.w3.org/1999/02/22-rdf-syntax-ns#"
   xmlns:svg="http://www.w3.org/2000/svg"
   xmlns="http://www.w3.org/2000/svg"
   xmlns:sodipodi="http://sodipodi.sourceforge.net/DTD/sodipodi-0.dtd"
   xmlns:inkscape="http://www.inkscape.org/namespaces/inkscape"
   width="15.677345mm"
   height="15.686087mm"
   viewBox="0 0 15.677344 15.686087"
   version="1.1"
   id="svg8"
   inkscape:version="0.92.1 r15371"
   sodipodi:docname="8.svg">
  <defs
     id="defs2" />
  <sodipodi:namedview
     id="base"
     pagecolor="#ffffff"
     bordercolor="#666666"
     borderopacity="1.0"
     inkscape:pageopacity="0.0"
     inkscape:pageshadow="2"
     inkscape:zoom="1.979899"
     inkscape:cx="-93.630676"
     inkscape:cy="19.146041"
     inkscape:document-units="mm"
     inkscape:current-layer="layer1"
     showgrid="false"
     fit-margin-top="0"
     fit-margin-left="0"
     fit-margin-right="0"
     fit-margin-bottom="0"
     inkscape:window-width="1920"
     inkscape:window-height="1017"
     inkscape:window-x="-8"
     inkscape:window-y="-8"
     inkscape:window-maximized="1" />
  <metadata
     id="metadata5">
    <rdf:RDF>
      <cc:Work
         rdf:about="">
        <dc:format>image/svg+xml</dc:format>
        <dc:type
           rdf:resource="http://purl.org/dc/dcmitype/StillImage" />
        <dc:title></dc:title>
      </cc:Work>
    </rdf:RDF>
  </metadata>
  <g
     inkscape:label="Layer 1"
     inkscape:groupmode="layer"
     id="layer1"
     transform="translate(-247.2376,-249.94686)">
    <path
       style="fill:#d8232a;stroke-width:0.26458332"
       d="m 250.17417,265.34502 c -0.41806,-0.30569 -0.43581,-0.55545 -0.18286,-2.57274 0.15408,-1.22881 0.28014,-2.37327 0.28014,-2.54325 0,-0.16998 -0.51845,-0.88748 -1.15212,-1.59444 -0.63366,-0.70696 -1.34715,-1.66472 -1.58553,-2.12835 -0.38797,-0.75456 -0.39121,-0.88517 -0.0309,-1.24549 0.22139,-0.22139 1.35592,-0.60741 2.52118,-0.85781 l 2.11864,-0.45527 0.83,-1.55724 c 0.4565,-0.85648 1.12575,-1.78987 1.48721,-2.0742 0.57582,-0.45294 0.72577,-0.47179 1.21092,-0.15223 0.30454,0.2006 0.99887,1.13595 1.54295,2.07856 0.97271,1.68519 1.01471,1.71922 2.51355,2.03676 3.83006,0.81144 4.04635,1.42082 1.51563,4.27027 l -1.17623,1.32438 0.16963,2.77251 0.16964,2.77252 h -0.879 c -0.48345,0 -1.66978,-0.3645 -2.63629,-0.80999 l -1.75729,-0.80999 -2.14314,0.94228 c -2.4785,1.08973 -2.22562,1.03552 -2.81614,0.60372 z"
       id="path73"
       inkscape:connector-curvature="0" />
  </g>
</svg>
