<?xml version="1.0" encoding="UTF-8" standalone="no"?>
<!-- Created with Inkscape (http://www.inkscape.org/) -->

<svg
   xmlns:dc="http://purl.org/dc/elements/1.1/"
   xmlns:cc="http://creativecommons.org/ns#"
   xmlns:rdf="http://www.w3.org/1999/02/22-rdf-syntax-ns#"
   xmlns:svg="http://www.w3.org/2000/svg"
   xmlns="http://www.w3.org/2000/svg"
   xmlns:sodipodi="http://sodipodi.sourceforge.net/DTD/sodipodi-0.dtd"
   xmlns:inkscape="http://www.inkscape.org/namespaces/inkscape"
   width="15.447306mm"
   height="15.386495mm"
   viewBox="0 0 15.447305 15.386494"
   version="1.1"
   id="svg8"
   inkscape:version="0.92.1 r15371"
   sodipodi:docname="video.svg">
  <defs
     id="defs2" />
  <sodipodi:namedview
     id="base"
     pagecolor="#ffffff"
     bordercolor="#666666"
     borderopacity="1.0"
     inkscape:pageopacity="0.0"
     inkscape:pageshadow="2"
     inkscape:zoom="2.8"
     inkscape:cx="-105.27082"
     inkscape:cy="73.704636"
     inkscape:document-units="mm"
     inkscape:current-layer="layer1"
     showgrid="false"
     fit-margin-top="0"
     fit-margin-left="0"
     fit-margin-right="0"
     fit-margin-bottom="0"
     inkscape:window-width="1920"
     inkscape:window-height="1017"
     inkscape:window-x="-8"
     inkscape:window-y="-8"
     inkscape:window-maximized="1" />
  <metadata
     id="metadata5">
    <rdf:RDF>
      <cc:Work
         rdf:about="">
        <dc:format>image/svg+xml</dc:format>
        <dc:type
           rdf:resource="http://purl.org/dc/dcmitype/StillImage" />
        <dc:title></dc:title>
      </cc:Work>
    </rdf:RDF>
  </metadata>
  <g
     inkscape:label="Layer 1"
     inkscape:groupmode="layer"
     id="layer1"
     transform="translate(-257.75101,-271.46335)">
    <path
       style="fill:#000000;stroke-width:0.26458335"
       d=""
       id="path21"
       inkscape:connector-curvature="0" />
    <g
       id="g982"
       transform="translate(30.80506,10.110863)">
      <path
         style="fill:#a5a8ac;stroke-width:0.26458332"
         d="m 232.75832,270.47552 c -0.0534,0.76399 -0.0972,0.13891 -0.0972,-1.38906 0,-1.52797 0.0437,-2.15305 0.0972,-1.38906 0.0534,0.76398 0.0534,2.01414 0,2.77812 z"
         id="path988"
         inkscape:connector-curvature="0" />
      <path
         style="fill:#8f9195;stroke-width:0.26458332"
         d="m 234.56664,276.73849 c -0.88358,-0.0115 -2.13906,-0.20885 -2.78995,-0.43858 -0.71078,-0.25087 -1.72493,-0.95918 -2.53926,-1.77352 -0.94746,-0.94746 -1.49674,-1.78006 -1.82366,-2.76432 -0.2573,-0.77466 -0.46782,-1.97869 -0.46782,-2.67561 0,-0.69692 0.21052,-1.90095 0.46782,-2.67561 0.32703,-0.9846 0.87625,-1.81692 1.82494,-2.7656 0.94868,-0.94869 1.781,-1.49791 2.7656,-1.82494 0.77466,-0.2573 1.97869,-0.46782 2.67561,-0.46782 0.69692,0 1.90095,0.21052 2.67561,0.46782 0.9846,0.32703 1.81692,0.87625 2.7656,1.82494 0.94294,0.94293 1.4983,1.78216 1.81971,2.74986 0.25443,0.76602 0.45797,1.99108 0.4523,2.72236 -0.006,0.73128 -0.21383,1.94238 -0.46259,2.69135 -0.30982,0.93277 -0.87786,1.7873 -1.80319,2.71263 -0.88712,0.88712 -1.79776,1.50315 -2.65255,1.79441 -0.71591,0.24393 -2.02459,0.43412 -2.90817,0.42263 z m -0.0497,-1.59362 c 0.5652,0.0148 1.5177,-0.11853 2.11667,-0.2964 0.65442,-0.19434 1.5671,-0.80148 2.28698,-1.52135 0.71987,-0.71988 1.32701,-1.63256 1.52135,-2.28698 0.17787,-0.59897 0.32341,-1.47812 0.32341,-1.95368 0,-0.47556 -0.14554,-1.35471 -0.32341,-1.95368 -0.19434,-0.65442 -0.80148,-1.5671 -1.52135,-2.28698 -0.71988,-0.71987 -1.63256,-1.32701 -2.28698,-1.52135 -0.59897,-0.17787 -1.47812,-0.32341 -1.95368,-0.32341 -0.47556,0 -1.35471,0.14554 -1.95368,0.32341 -0.65442,0.19434 -1.5671,0.80148 -2.28698,1.52135 -0.71987,0.71988 -1.32701,1.63256 -1.52135,2.28698 -0.17787,0.59897 -0.32341,1.47812 -0.32341,1.95368 0,0.47556 0.14554,1.35471 0.32341,1.95368 0.19392,0.65301 0.80303,1.5698 1.52135,2.28985 0.65888,0.66046 1.61467,1.33291 2.12399,1.49435 0.50933,0.16143 1.38848,0.30567 1.95368,0.32053 z"
         id="path986"
         inkscape:connector-curvature="0" />
      <path
         style="fill:#565b66;stroke-width:0.26458332"
         d="m 233.15857,271.8407 c -0.25604,0.14508 -0.33073,-0.48032 -0.33073,-2.76905 0,-2.95647 0,-2.95647 0.59531,-2.57769 0.32742,0.20833 1.33945,0.82595 2.24896,1.3725 0.9095,0.54655 1.65364,1.09185 1.65364,1.21177 0,0.11992 -0.8632,0.74837 -1.91823,1.39655 -1.05502,0.64818 -2.06705,1.26284 -2.24895,1.36592 z"
         id="path984"
         inkscape:connector-curvature="0" />
    </g>
  </g>
</svg>
